<svg width="112" height="23" viewBox="0 0 112 23" fill="none" xmlns="http://www.w3.org/2000/svg">
<g clip-path="url(#clip0)">
<path d="M13.17 6.23302L16.194 4.53102C15.1636 1.88602 12.5876 0.322021 9.13804 0.322021C3.44844 0.322021 -0.0683594 3.93302 -0.0683594 9.20002C-0.0683594 14.95 4.59084 18.124 9.02604 18.124C13.1028 18.124 15.7684 16.169 16.9108 14.536V8.34902H8.15244V11.201H13.6404L13.618 13.156C13.618 13.156 12.0052 14.743 9.09324 14.743C5.95724 14.743 4.16524 12.558 4.16524 9.10802C4.16524 5.63502 5.95724 3.45002 9.04844 3.45002C10.8852 3.45002 12.2516 4.57702 13.17 6.23302ZM18.434 22.011V19.09C19.0836 19.205 19.5092 19.228 19.9572 19.228C21.3012 19.228 22.3092 18.745 22.7572 17.779L22.8468 17.434L17.5156 5.95702H21.7492L24.4372 12.995C24.6388 13.501 24.706 13.8 24.7956 14.283H24.8628C24.93 13.869 25.0196 13.57 25.1988 13.018L27.7748 5.95702H31.7396L26.6772 17.986C25.4228 20.976 23.5636 22.172 20.338 22.172C19.8452 22.172 19.0612 22.126 18.434 22.011ZM36.6676 5.95702V8.25702C37.4292 6.48602 38.818 5.61202 40.8116 5.61202C42.7828 5.61202 44.1044 6.48602 44.7764 8.28002C45.6948 6.50902 47.1956 5.61202 49.1668 5.61202C51.9668 5.61202 53.5348 7.40602 53.5348 10.649V17.457H49.7044V11.362C49.7044 9.47602 48.9876 8.55602 47.554 8.55602C46.0532 8.55602 45.1572 9.61402 45.1572 11.431V17.457H41.3268V11.362C41.3268 9.47602 40.61 8.55602 39.1764 8.55602C37.6756 8.55602 36.7796 9.63702 36.7796 11.5V17.457H32.9492V5.95702H36.6676ZM55.6852 5.95702H59.4036V7.88902C60.322 6.39402 62.002 5.61202 63.9732 5.61202C67.3332 5.61202 69.5508 8.00402 69.5508 11.661C69.5508 15.364 67.2212 17.802 63.8164 17.802C61.9348 17.802 60.4564 17.066 59.5156 15.847V21.942H55.6852V5.95702ZM65.586 11.661C65.586 9.49902 64.466 8.25702 62.5396 8.25702C60.658 8.25702 59.426 9.43002 59.426 11.477V11.96C59.426 13.892 60.658 15.157 62.5172 15.157C64.4212 15.157 65.586 13.823 65.586 11.661ZM71.0292 14.306C71.0292 13.248 71.4548 12.374 72.2388 11.799C73.0228 11.247 74.1428 10.902 76.1364 10.695L80.3028 10.304V9.95902C80.3028 8.67102 79.4516 8.05002 77.9284 8.05002C76.3828 8.05002 75.4644 8.67102 75.3076 9.82102H71.3876C71.6788 7.19902 74.1652 5.61202 77.9508 5.61202C82.2068 5.61202 84.1556 7.19902 84.1556 10.534V14.099C84.1556 15.571 84.2452 16.652 84.4244 17.457H80.6388C80.5492 16.905 80.482 16.192 80.482 15.502C79.7428 16.951 77.9956 17.802 75.6212 17.802C72.7988 17.802 71.0292 16.468 71.0292 14.306ZM80.3924 12.903V12.167L77.3012 12.489C75.5988 12.696 74.9492 13.156 74.9492 14.053C74.9492 14.904 75.7556 15.41 77.0772 15.41C79.0484 15.41 80.3924 14.421 80.3924 12.903ZM85.4996 15.065L87.5604 13.271C88.6132 14.559 90.2037 15.249 92.5332 15.249C94.1012 15.249 94.7956 14.904 94.7956 14.191C94.7956 13.547 94.4596 13.294 93.1828 13.156L90.2037 12.857C87.4708 12.512 86.1716 11.339 86.1716 9.31502C86.1716 6.96902 88.2772 5.61202 92.0404 5.61202C94.7508 5.61202 96.946 6.39402 98.2004 7.79702L96.4084 9.68302C95.266 8.62502 93.8549 8.11902 91.8388 8.11902C90.3604 8.11902 89.666 8.41802 89.666 9.08502C89.666 9.63702 90.0693 9.91302 91.0996 10.028L94.3924 10.373C97.1476 10.695 98.2452 11.868 98.2452 13.892C98.2452 16.33 96.2516 17.802 92.354 17.802C89.2404 17.802 86.8885 16.859 85.4996 15.065ZM99.2533 15.065L101.314 13.271C102.367 14.559 103.957 15.249 106.287 15.249C107.855 15.249 108.549 14.904 108.549 14.191C108.549 13.547 108.213 13.294 106.936 13.156L103.957 12.857C101.224 12.512 99.9252 11.339 99.9252 9.31502C99.9252 6.96902 102.031 5.61202 105.794 5.61202C108.504 5.61202 110.7 6.39402 111.954 7.79702L110.162 9.68302C109.02 8.62502 107.608 8.11902 105.592 8.11902C104.114 8.11902 103.42 8.41802 103.42 9.08502C103.42 9.63702 103.823 9.91302 104.853 10.028L108.146 10.373C110.901 10.695 111.999 11.868 111.999 13.892C111.999 16.33 110.005 17.802 106.108 17.802C102.994 17.802 100.642 16.859 99.2533 15.065Z" fill="white"/>
</g>
<defs>
<clipPath id="clip0">
<rect width="112" height="23" fill="white"/>
</clipPath>
</defs>
</svg>
