<svg width="172" height="38" viewBox="0 0 172 38" fill="none" xmlns="http://www.w3.org/2000/svg">
<path d="M61.2849 7.71505C61.984 8.04116 62.5808 8.45308 63.0496 8.96798C63.5271 9.48288 63.8851 10.0493 64.1324 10.6757C64.3796 11.3022 64.5075 11.9115 64.5075 12.5037C64.5075 13.2588 64.3455 13.9454 64.013 14.5547C63.6805 15.1726 63.2543 15.6875 62.7257 16.1251C62.1971 16.5542 61.5918 16.8889 60.9183 17.112C60.2448 17.3437 59.5543 17.4553 58.8552 17.4553H54.3113V22.3126H51.7196V8.49599C51.7196 8.19563 51.8475 7.91243 52.0947 7.63781C52.3419 7.3632 52.7085 7.22589 53.1859 7.22589H58.8552C59.7674 7.23447 60.5773 7.39753 61.2849 7.71505ZM58.8638 15.2241C59.3326 15.2241 59.7504 15.1468 60.117 15.0009C60.4835 14.855 60.799 14.6491 61.0547 14.3916C61.3105 14.1342 61.5066 13.8424 61.6515 13.5249C61.7964 13.2074 61.8646 12.8641 61.8646 12.5122C61.8646 12.1518 61.7964 11.7914 61.66 11.4309C61.5236 11.0705 61.3276 10.753 61.0803 10.4612C60.8246 10.1694 60.5177 9.93772 60.1425 9.7575C59.776 9.57728 59.3497 9.48288 58.8638 9.48288H54.3198V15.2241H58.8638Z" fill="white"/>
<path d="M74.9935 17.5583C75.2407 18.0475 75.5647 18.4766 75.9654 18.8456C76.366 19.206 76.8264 19.4978 77.355 19.7038C77.875 19.9097 78.4121 20.0213 78.9662 20.0213C79.5289 20.0213 80.066 19.9183 80.586 19.7209C81.0975 19.515 81.5579 19.2318 81.9586 18.8713C82.3593 18.5109 82.6832 18.0732 82.9219 17.5755C83.1607 17.0777 83.28 16.5371 83.28 15.9535V7.2345H85.8887V15.9535C85.8887 16.9147 85.6926 17.7814 85.309 18.5538C84.9169 19.3262 84.4053 19.9955 83.7659 20.5448C83.1266 21.094 82.3849 21.5231 81.5494 21.832C80.7139 22.1324 79.8529 22.2869 78.9662 22.2869C78.1052 22.2869 77.2612 22.1324 76.4342 21.8149C75.6073 21.4973 74.8656 21.0597 74.2177 20.5019C73.5698 19.944 73.0412 19.2747 72.6405 18.5023C72.2398 17.73 72.0352 16.8804 72.0352 15.9621V7.2345H74.6269V15.9535C74.6269 16.5285 74.7462 17.0692 74.9935 17.5583Z" fill="white"/>
<path d="M96.9033 7.2345V20.0556H106.767V22.3212H95.778C95.3091 22.3212 94.951 22.1839 94.6953 21.9092C94.4395 21.6346 94.3116 21.3514 94.3116 21.0682V7.2345H96.9033Z" fill="white"/>
<path d="M127.978 8.12686L128.199 8.18693C128.182 8.18693 128.174 8.17835 128.157 8.16977C128.174 8.16977 128.199 8.18693 128.259 8.21268C128.37 8.23842 128.438 8.26417 128.481 8.27275L128.745 8.34998L127.841 10.6327L127.262 10.3324C126.844 10.1264 126.452 9.96335 126.068 9.82604C125.684 9.68873 125.301 9.58575 124.909 9.50852C124.517 9.43128 124.116 9.37979 123.69 9.34546C123.272 9.31114 122.811 9.29397 122.317 9.29397C121.797 9.29397 121.26 9.3283 120.723 9.40553C120.177 9.48277 119.691 9.60291 119.248 9.78313C118.805 9.95476 118.447 10.1865 118.165 10.4697C117.884 10.7529 117.747 11.1133 117.747 11.5424C117.747 11.9028 117.85 12.1946 118.046 12.4006C118.25 12.6065 118.532 12.7696 118.89 12.8725C119.265 13.0099 119.708 13.1043 120.22 13.1557C120.731 13.2072 121.294 13.2673 121.908 13.3188C122.402 13.3445 122.931 13.3875 123.485 13.4475C124.039 13.5076 124.593 13.5934 125.156 13.7136C125.71 13.8251 126.247 13.9882 126.75 14.1856C127.262 14.3915 127.705 14.6575 128.097 14.9836C128.489 15.3183 128.796 15.7131 129.035 16.1765C129.265 16.6399 129.384 17.2063 129.384 17.8671C129.384 18.691 129.154 19.3947 128.702 19.9696C128.251 20.5532 127.654 21.0252 126.921 21.4028C126.187 21.7804 125.378 22.055 124.465 22.2352C123.562 22.4068 122.658 22.5012 121.763 22.5012C121.277 22.5012 120.825 22.4841 120.407 22.4497C119.99 22.4154 119.572 22.3639 119.171 22.2867C118.771 22.2095 118.37 22.1236 117.978 22.0121C117.585 21.9005 117.168 21.7718 116.724 21.6087C116.426 21.4972 116.145 21.3856 115.863 21.274C115.582 21.1625 115.292 21.0509 115.002 20.9394L114.721 20.8364L115.889 18.7167L116.213 18.8969C116.29 18.9484 116.4 18.9999 116.537 19.0342C116.605 19.06 116.665 19.0857 116.724 19.1115C116.784 19.1372 116.844 19.1629 116.912 19.1887C118.481 19.8752 120.1 20.2185 121.771 20.2185C122.291 20.2185 122.846 20.1756 123.425 20.0898C124.005 20.004 124.551 19.8581 125.045 19.6693C125.54 19.4719 125.949 19.2316 126.281 18.9312C126.614 18.6309 126.776 18.279 126.776 17.8585C126.776 17.5067 126.69 17.2149 126.528 16.9918C126.358 16.7601 126.153 16.5713 125.898 16.4168C125.642 16.2623 125.369 16.1422 125.062 16.0649C124.764 15.9877 124.465 15.9191 124.184 15.859C123.877 15.7903 123.562 15.7474 123.238 15.7217C122.914 15.6959 122.598 15.6616 122.291 15.6187C121.985 15.5758 121.669 15.5415 121.345 15.5157C121.021 15.49 120.706 15.4556 120.382 15.4127C119.776 15.3441 119.163 15.2411 118.54 15.1124C117.918 14.9751 117.355 14.7691 116.844 14.4859C116.332 14.2027 115.923 13.8251 115.599 13.3531C115.275 12.8811 115.113 12.2718 115.113 11.5338C115.113 10.7357 115.326 10.0577 115.744 9.49135C116.17 8.92496 116.716 8.46155 117.389 8.09253C118.063 7.7321 118.839 7.46607 119.7 7.29443C120.561 7.1228 121.439 7.04556 122.326 7.04556C123.212 7.04556 124.09 7.10564 124.977 7.23436C125.864 7.36309 126.708 7.60337 127.509 7.95522C127.56 7.98097 127.611 8.00672 127.662 8.0153C127.705 8.03246 127.765 8.04962 127.833 8.07537L127.952 8.11828H127.978V8.12686Z" fill="white"/>
<path d="M135.651 22.3211L142.326 7.80081C142.437 7.59485 142.599 7.40605 142.829 7.23442C143.059 7.06278 143.34 6.96838 143.69 6.96838C144.09 6.96838 144.389 7.04562 144.593 7.19151C144.798 7.3374 144.952 7.54336 145.079 7.80081L151.61 22.3211H148.771L143.664 11.0533L138.481 22.3211H135.651Z" fill="white"/>
<path d="M164.841 16.9233H160.919V22.3212H158.328V8.50459C158.328 8.20423 158.447 7.92103 158.703 7.64642C158.95 7.3718 159.317 7.2345 159.794 7.2345H165.779C166.486 7.2345 167.168 7.35464 167.808 7.59493C168.447 7.83522 169.018 8.17849 169.513 8.62474C170.007 9.07099 170.399 9.59447 170.689 10.2038C170.979 10.8131 171.124 11.4739 171.124 12.2033C171.124 12.6496 171.056 13.1044 170.911 13.5592C170.774 14.0141 170.553 14.4431 170.271 14.8465C169.982 15.2412 169.624 15.6017 169.189 15.9106C168.754 16.2196 168.242 16.4599 167.654 16.6401L171.934 22.3212H168.856L164.841 16.9233ZM160.919 14.6749H165.779C166.205 14.6749 166.589 14.6062 166.921 14.4689C167.254 14.3316 167.535 14.1514 167.765 13.9197C167.995 13.688 168.166 13.4305 168.285 13.1301C168.404 12.8298 168.464 12.5208 168.464 12.2033C168.464 11.8858 168.404 11.5597 168.285 11.2336C168.166 10.9075 167.987 10.6157 167.765 10.3497C167.535 10.0836 167.254 9.87767 166.921 9.71462C166.589 9.55156 166.205 9.47433 165.779 9.47433H160.919V14.6749Z" fill="white"/>
<path d="M81.9835 4.39383H75.9398V6.2389H81.9835V4.39383Z" fill="white"/>
<path d="M54.7201 31.3746H55.3595C55.4276 31.3746 55.4788 31.4261 55.4788 31.4948V32.1727C55.4788 33.0481 54.9247 33.6059 54.0552 33.6059H53.1687C52.2992 33.6059 51.7451 33.0481 51.7451 32.1727V27.4356C51.7451 26.5603 52.2992 26.0025 53.1687 26.0025H54.0552C54.9247 26.0025 55.4788 26.5603 55.4788 27.427V27.9849C55.4788 28.0621 55.4276 28.105 55.3595 28.105H54.7201C54.6519 28.105 54.6008 28.0621 54.6008 27.9849V27.5129C54.6008 27.0752 54.3451 26.8092 53.9188 26.8092H53.2966C52.8703 26.8092 52.6146 27.0666 52.6146 27.5129V32.0783C52.6146 32.516 52.8703 32.782 53.3136 32.782H53.9274C54.3536 32.782 54.6093 32.5246 54.6093 32.0783V31.4948C54.6008 31.4261 54.6605 31.3746 54.7201 31.3746Z" fill="white"/>
<path d="M62.9376 33.5716H62.2386C62.1875 33.5716 62.1193 33.5373 62.1023 33.4858L61.1219 30.4908H60.0564V33.4515C60.0564 33.5201 60.0138 33.5716 59.937 33.5716H59.3062C59.2295 33.5716 59.1869 33.5201 59.1869 33.4515V26.1484C59.1869 26.0712 59.2295 26.0283 59.3062 26.0283H61.4714C62.3409 26.0283 62.895 26.5861 62.895 27.4529V29.0576C62.895 29.7356 62.554 30.2333 62 30.4136L63.0229 33.4257C63.0399 33.5116 63.0229 33.5716 62.9376 33.5716ZM60.0479 29.6669H61.318C61.7528 29.6669 62.017 29.4009 62.017 28.9547V27.5473C62.017 27.1096 61.7613 26.835 61.318 26.835H60.0479V29.6669Z" fill="white"/>
<path d="M66.6388 27.4187C66.6388 26.5605 67.1929 25.9941 68.0623 25.9941H69.0426C69.9121 25.9941 70.4662 26.5519 70.4662 27.4187V32.1558C70.4662 33.0397 69.9121 33.5975 69.0426 33.5975H68.0623C67.1929 33.5975 66.6388 33.0397 66.6388 32.1558V27.4187ZM68.1987 32.7737H68.9062C69.3325 32.7737 69.5882 32.5162 69.5882 32.07V27.5045C69.5882 27.0668 69.3325 26.8008 68.9062 26.8008H68.1987C67.764 26.8008 67.4997 27.0582 67.4997 27.5045V32.07C67.4997 32.5162 67.7555 32.7737 68.1987 32.7737Z" fill="white"/>
<path d="M77.1841 27.9679V27.5045C77.1841 27.0668 76.9284 26.8008 76.5021 26.8008H75.7605C75.3258 26.8008 75.0615 27.0582 75.0615 27.5045V28.5772C75.0615 29.0406 75.3258 29.3066 75.7776 29.3066H76.6556C77.4995 29.3066 78.045 29.8473 78.045 30.6969V32.1644C78.045 33.0397 77.491 33.5975 76.6215 33.5975H75.6497C74.7717 33.5975 74.2176 33.0397 74.2176 32.1644V31.2375C74.2176 31.1603 74.2688 31.1174 74.337 31.1174H74.9763C75.0445 31.1174 75.0956 31.1603 75.0956 31.2375V32.07C75.0956 32.5076 75.3514 32.7737 75.7776 32.7737H76.4936C76.9198 32.7737 77.1756 32.5076 77.1756 32.07V30.8514C77.1756 30.4137 76.9113 30.1391 76.4595 30.1391H75.6241C74.7717 30.1391 74.2091 29.5898 74.2091 28.7145V27.4101C74.2091 26.5519 74.7632 25.9855 75.6412 25.9855H76.613C77.4824 25.9855 78.0365 26.5433 78.0365 27.4101V27.9593C78.0365 28.028 77.9939 28.0795 77.9172 28.0795H77.2864C77.2267 28.088 77.1841 28.0365 77.1841 27.9679Z" fill="white"/>
<path d="M84.6777 27.9679V27.5045C84.6777 27.0668 84.422 26.8008 83.9958 26.8008H83.2542C82.8194 26.8008 82.5552 27.0582 82.5552 27.5045V28.5772C82.5552 29.0406 82.8194 29.3066 83.2712 29.3066H84.1492C84.9931 29.3066 85.5387 29.8473 85.5387 30.6969V32.1644C85.5387 33.0397 84.9846 33.5975 84.1151 33.5975H83.1433C82.2653 33.5975 81.7112 33.0397 81.7112 32.1644V31.2375C81.7112 31.1603 81.7624 31.1174 81.8306 31.1174H82.4699C82.5381 31.1174 82.5893 31.1603 82.5893 31.2375V32.07C82.5893 32.5076 82.845 32.7737 83.2712 32.7737H83.9872C84.4135 32.7737 84.6692 32.5076 84.6692 32.07V30.8514C84.6692 30.4137 84.4049 30.1391 83.9532 30.1391H83.1263C82.2739 30.1391 81.7112 29.5898 81.7112 28.7145V27.4101C81.7112 26.5519 82.2653 25.9855 83.1433 25.9855H84.1151C84.9846 25.9855 85.5387 26.5433 85.5387 27.4101V27.9593C85.5387 28.028 85.4961 28.0795 85.4194 28.0795H84.7885C84.7203 28.088 84.6777 28.0365 84.6777 27.9679Z" fill="white"/>
<path d="M94.7037 33.4515V26.8865H93.3739C93.3057 26.8865 93.2546 26.8436 93.2546 26.7663V26.1484C93.2546 26.0712 93.3057 26.0283 93.3739 26.0283H96.8945C96.9627 26.0283 97.0138 26.0712 97.0138 26.1484V26.7663C97.0138 26.8436 96.9627 26.8865 96.8945 26.8865H95.5647V33.4515C95.5647 33.5201 95.5221 33.5716 95.4453 33.5716H94.8145C94.7463 33.5716 94.7037 33.5116 94.7037 33.4515Z" fill="white"/>
<path d="M104.218 33.5716H103.519C103.467 33.5716 103.399 33.5373 103.382 33.4858L102.402 30.4908H101.336V33.4515C101.336 33.5201 101.294 33.5716 101.217 33.5716H100.586C100.509 33.5716 100.467 33.5201 100.467 33.4515V26.1484C100.467 26.0712 100.509 26.0283 100.586 26.0283H102.76C103.629 26.0283 104.183 26.5861 104.183 27.4529V29.0576C104.183 29.7356 103.842 30.2333 103.288 30.4136L104.311 33.4257C104.328 33.5116 104.303 33.5716 104.218 33.5716ZM101.336 29.6669H102.606C103.041 29.6669 103.305 29.4009 103.305 28.9547V27.5473C103.305 27.1096 103.05 26.835 102.606 26.835H101.336V29.6669Z" fill="white"/>
<path d="M111.779 33.5716H111.072C111.021 33.5716 110.961 33.5287 110.953 33.4772L110.697 32.2586H108.634L108.37 33.4772C108.361 33.5287 108.318 33.5716 108.25 33.5716H107.551C107.466 33.5716 107.423 33.503 107.432 33.4172L109.179 26.1313C109.188 26.0626 109.248 26.0369 109.299 26.0369H110.04C110.109 26.0369 110.151 26.0712 110.168 26.1313L111.89 33.4172C111.907 33.503 111.865 33.5716 111.779 33.5716ZM110.518 31.4262L109.793 28.0193L109.674 27.2555L109.546 28.0193L108.804 31.4262H110.518Z" fill="white"/>
<path d="M116.111 33.5716H115.471C115.394 33.5716 115.352 33.5201 115.352 33.4515V26.1484C115.352 26.0712 115.394 26.0283 115.471 26.0283H116.111C116.179 26.0283 116.23 26.0712 116.23 26.1484V33.4515C116.23 33.5116 116.179 33.5716 116.111 33.5716Z" fill="white"/>
<path d="M123.382 26.0283H124.005C124.073 26.0283 124.124 26.0712 124.124 26.1484V33.4515C124.124 33.5201 124.073 33.5716 124.005 33.5716H123.348C123.306 33.5716 123.254 33.5373 123.237 33.4858L120.893 27.7875L120.97 29.8472V33.4515C120.97 33.5201 120.927 33.5716 120.851 33.5716H120.237C120.16 33.5716 120.118 33.5201 120.118 33.4515V26.1484C120.118 26.0712 120.16 26.0283 120.237 26.0283H120.919C120.97 26.0283 121.013 26.0626 121.038 26.1055L123.331 31.7609L123.254 29.5983V26.1484C123.272 26.0712 123.323 26.0283 123.382 26.0283Z" fill="white"/>
<path d="M128.788 33.5716H128.148C128.072 33.5716 128.029 33.5201 128.029 33.4515V26.1484C128.029 26.0712 128.072 26.0283 128.148 26.0283H128.788C128.856 26.0283 128.907 26.0712 128.907 26.1484V33.4515C128.907 33.5116 128.847 33.5716 128.788 33.5716Z" fill="white"/>
<path d="M136.059 26.0283H136.682C136.75 26.0283 136.801 26.0712 136.801 26.1484V33.4515C136.801 33.5201 136.75 33.5716 136.682 33.5716H136.025C135.983 33.5716 135.931 33.5373 135.914 33.4858L133.57 27.7875L133.647 29.8472V33.4515C133.647 33.5201 133.604 33.5716 133.528 33.5716H132.914C132.837 33.5716 132.794 33.5201 132.794 33.4515V26.1484C132.794 26.0712 132.837 26.0283 132.914 26.0283H133.596C133.647 26.0283 133.689 26.0626 133.715 26.1055L136.008 31.7609L135.931 29.5983V26.1484C135.94 26.0712 136 26.0283 136.059 26.0283Z" fill="white"/>
<path d="M142.701 29.5642L144.329 29.5727C144.397 29.5727 144.448 29.6157 144.448 29.6929V32.1473C144.448 33.0226 143.894 33.589 143.024 33.589H142.095C141.226 33.589 140.672 33.014 140.672 32.1473V27.4445C140.672 26.5691 141.226 26.0113 142.095 26.0113H143.024C143.894 26.0113 144.448 26.5691 144.448 27.4445V27.9851C144.448 28.0624 144.397 28.1053 144.329 28.1053H143.689C143.621 28.1053 143.57 28.0624 143.57 27.9851V27.5217C143.57 27.0926 143.314 26.8352 142.888 26.8352H142.232C141.797 26.8352 141.533 27.0926 141.533 27.5217V32.0615C141.533 32.4991 141.788 32.7652 142.232 32.7652H142.888C143.314 32.7652 143.57 32.5077 143.57 32.0615V30.3966H142.701C142.632 30.3966 142.581 30.3451 142.581 30.2765V29.6843C142.581 29.6157 142.641 29.5642 142.701 29.5642Z" fill="white"/>
<path d="M156.571 30.4908V32.1385C156.571 33.0138 156.017 33.5716 155.147 33.5716H152.957C152.88 33.5716 152.837 33.5201 152.837 33.4515V26.1484C152.837 26.0712 152.88 26.0283 152.957 26.0283H155.028C155.898 26.0283 156.452 26.5861 156.452 27.4529V28.4741C156.452 28.9547 156.239 29.2464 155.94 29.4352C156.307 29.6155 156.571 29.9931 156.571 30.4908ZM153.707 29.0748H154.866C155.258 29.0748 155.582 28.7487 155.582 28.3539V27.5558C155.582 27.101 155.318 26.835 154.875 26.835H153.707V29.0748ZM155.693 30.6195C155.693 30.199 155.412 29.9072 154.926 29.9072H153.707V32.7392H154.994C155.429 32.7392 155.702 32.4732 155.702 32.0183V30.6195H155.693Z" fill="white"/>
<path d="M160.331 27.4187C160.331 26.5605 160.885 25.9941 161.754 25.9941H162.735C163.604 25.9941 164.158 26.5519 164.158 27.4187V32.1558C164.158 33.0397 163.604 33.5975 162.735 33.5975H161.754C160.885 33.5975 160.331 33.0397 160.331 32.1558V27.4187ZM161.891 32.7737H162.598C163.025 32.7737 163.28 32.5162 163.28 32.07V27.5045C163.28 27.0668 163.025 26.8008 162.598 26.8008H161.891C161.456 26.8008 161.192 27.0582 161.192 27.5045V32.07C161.192 32.5162 161.448 32.7737 161.891 32.7737Z" fill="white"/>
<path d="M167.398 33.4257L169.214 29.5897L167.467 26.1656C167.424 26.0798 167.467 26.0283 167.552 26.0283H168.268C168.336 26.0283 168.379 26.054 168.404 26.1141L169.691 28.7401L170.962 26.1141C170.996 26.0455 171.047 26.0283 171.098 26.0283H171.814C171.899 26.0283 171.95 26.0798 171.899 26.1656L170.169 29.5897L171.985 33.4257C172.027 33.503 171.976 33.5631 171.899 33.5631H171.158C171.089 33.5631 171.047 33.5287 171.021 33.4772L169.683 30.5251L168.336 33.4772C168.319 33.5287 168.259 33.5631 168.2 33.5631H167.475C167.39 33.5716 167.356 33.503 167.398 33.4257Z" fill="white"/>
<path d="M7.22646 10.1779L7.01333 12.9756C6.9366 13.9282 6.59559 14.8464 6.0244 15.6102L5.15483 16.7687L3.48389 18.9914L1.01157 22.2868C-1.35844 25.4448 0.679086 29.9931 4.60069 30.2935L7.43107 30.508L7.22646 27.8048L4.8053 27.616C3.56914 27.5216 3.0491 26.6291 2.8786 26.2515C2.70809 25.8739 2.39266 24.887 3.14288 23.8915L5.15483 21.2055L6.82578 19L8.15571 17.2321C9.03381 16.0564 9.56237 14.6576 9.6732 13.1901L9.92043 9.98056L7.22646 10.1779Z" fill="white"/>
<path d="M27.4483 33.1597C27.346 34.5586 26.1695 35.3137 25.1295 35.3137C24.635 35.3137 24.1746 35.1507 23.7569 34.8417L21.0885 32.8165L18.8805 31.1344L17.1243 29.7957C15.9563 28.9118 14.5667 28.3797 13.1089 28.2682L9.92047 28.0193L10.1251 30.7225L12.9043 30.9371C13.8506 31.0143 14.7628 31.3576 15.5215 31.9325L16.6724 32.8079L18.8805 34.4899L22.1542 36.9786C23.0749 37.6737 24.115 37.9912 25.1295 37.9912C27.5762 37.9912 29.8951 36.1462 30.1082 33.3571L30.3213 30.508L27.6359 30.7139L27.4483 33.1597Z" fill="white"/>
<path d="M10.3033 4.83151C10.4056 3.43269 11.5821 2.6775 12.6222 2.6775C13.1166 2.6775 13.577 2.84055 13.9947 3.14949L16.6631 5.17478L18.8797 6.86538L20.6359 8.19554C21.8038 9.07946 23.1935 9.61153 24.6513 9.72309L27.8397 9.97196L27.6351 7.26872L24.8559 7.05417C23.9096 6.97694 22.9974 6.63367 22.2386 6.05869L21.0877 5.18336L18.8797 3.50134L15.606 1.01264C14.6767 0.317524 13.6367 0 12.6222 0C10.1754 0 7.85656 1.84507 7.64343 4.62555L7.4303 7.47468L10.1157 7.26872L10.3033 4.83151Z" fill="white"/>
<path d="M33.1517 7.68934L30.3213 7.47479L30.5259 10.178L32.9471 10.3668C34.1747 10.4612 34.7033 11.3537 34.8738 11.7313C35.0443 12.1089 35.3597 13.0958 34.6095 14.0913L32.5975 16.7774L30.9266 19L29.6052 20.7679C28.7271 21.9436 28.1985 23.3424 28.0877 24.8099L27.8405 28.0194L30.5259 27.8135L30.739 25.0158C30.8158 24.0633 31.1568 23.145 31.728 22.3812L32.5975 21.2227L34.2685 19L36.7408 15.7047C39.1023 12.538 37.0648 7.99828 33.1517 7.68934Z" fill="white"/>
<path d="M4.02904 15.267L3.30447 14.2972L2.25598 17.3523L2.98055 18.3221L4.02904 15.267Z" fill="white"/>
<path d="M7.84794 7.44907L6.90173 10.2038L7.22566 10.1866L7.98433 10.1266L8.93053 7.36325L7.84794 7.44907Z" fill="white"/>
<path d="M29.605 17.2323L29.7073 17.3696L30.8922 13.894C30.8155 13.5937 30.7558 13.2933 30.7387 12.9758L30.6279 11.577L29.0083 16.3141C29.1873 16.6316 29.3834 16.9405 29.605 17.2323Z" fill="white"/>
<path d="M5.5889 7.6206L4.6427 10.3925C4.69385 10.3839 4.75352 10.3753 4.81319 10.3753L5.73381 10.3067L6.68002 7.54337L5.5889 7.6206Z" fill="white"/>
<path d="M0.124882 13.7996L1.83827 8.79648C0.406185 9.98076 -0.292811 11.9374 0.124882 13.7996Z" fill="white"/>
<path d="M14.8394 9.38846L16.1436 5.58676L15.5128 6.06734C15.2741 6.24755 15.0269 6.40202 14.7627 6.53933L13.6886 9.66308C14.0807 9.60301 14.4643 9.50861 14.8394 9.38846Z" fill="white"/>
<path d="M28.0876 13.1902C28.1302 13.7395 28.2325 14.2887 28.386 14.8122L30.4233 8.84789L30.321 7.48339L30.2357 6.32486L28.045 12.7011L28.0876 13.1902Z" fill="white"/>
<path d="M12.5034 9.77463L13.4581 6.97699C13.2706 7.01132 13.083 7.03706 12.8955 7.05422L12.367 7.09713L11.4208 9.86045L12.5034 9.77463Z" fill="white"/>
<path d="M9.91176 9.97198L10.2442 9.94624L11.1904 7.1915L10.1163 7.26873H10.1078L9.16162 10.0321L9.91176 9.97198Z" fill="white"/>
<path d="M4.8133 16.3141L4.23364 18.0047L5.15427 16.7775L4.8133 16.3141Z" fill="white"/>
<path d="M36.7403 22.2955L36.0754 21.403L34.9843 24.5954C35.223 25.3248 35.0099 25.977 34.882 26.2688C34.7797 26.5005 34.5325 26.9296 34.0807 27.2471L33.0322 30.3194L33.1601 30.3108C33.5096 30.2851 33.8335 30.225 34.1489 30.1392L36.8 22.3899C36.7744 22.347 36.7574 22.3212 36.7403 22.2955Z" fill="white"/>
<path d="M22.5632 28.7316L21.1907 32.7307L22.2392 31.9326C22.3586 31.8468 22.4779 31.761 22.6058 31.6837L23.731 28.3969C23.3303 28.4828 22.9382 28.5943 22.5632 28.7316Z" fill="white"/>
<path d="M24.9246 28.2511L23.9529 31.1002C24.2512 31.023 24.5496 30.9715 24.8565 30.9457L25.0696 30.9286L26.0158 28.1653L24.9246 28.2511Z" fill="white"/>
<path d="M37.4822 23.7029L35.496 29.5127C36.2547 29.0149 36.8429 28.3198 37.235 27.5217L37.6442 26.3375C37.8232 25.4793 37.7806 24.5696 37.4822 23.7029Z" fill="white"/>
<path d="M10.3039 33.16L10.2528 32.5421L8.94 36.3781C9.18721 36.6442 9.45999 36.8844 9.74982 37.0904L10.696 34.3185C10.4829 34.001 10.338 33.6148 10.3039 33.16Z" fill="white"/>
<path d="M9.21186 22.733L7.26831 28.4055L7.43027 30.5166L7.46437 30.9286L9.6466 24.5609C9.5784 23.9345 9.43349 23.3166 9.21186 22.733Z" fill="white"/>
<path d="M16.7404 32.8682L15.2486 37.2191C15.3679 37.1419 15.4788 37.0646 15.5981 36.9788L16.6722 36.1636L17.5843 33.5032L16.7404 32.8682Z" fill="white"/>
<path d="M8.1463 20.7679L7.8309 20.3388L6.70569 23.6256C6.86765 24.0719 6.97847 24.5353 7.01257 25.0073L7.06371 25.6681L8.54695 21.3429C8.41908 21.1541 8.29122 20.9567 8.1463 20.7679Z" fill="white"/>
<path d="M2.8783 11.7314C2.93797 11.5941 3.04878 11.3881 3.22779 11.1735L4.41268 7.71512C4.00351 7.75803 3.61991 7.85243 3.26189 7.98115L0.755737 15.3185C0.832456 15.4472 0.926224 15.576 1.01999 15.7047L1.47178 16.314L2.67371 12.8127C2.64814 12.3321 2.78453 11.9373 2.8783 11.7314Z" fill="white"/>
<path d="M34.5582 19.3948L33.5097 22.4499L34.2343 23.411L35.2827 20.3559L34.5582 19.3948Z" fill="white"/>
<path d="M12.5631 35.314C12.2391 35.3054 11.8982 35.2196 11.5913 35.0737L10.7218 37.6139C11.0287 37.7426 11.3526 37.837 11.6765 37.9056L12.5631 35.314Z" fill="white"/>
<path d="M15.2483 33.8893L13.9952 34.8419C13.9441 34.8848 13.8844 34.9192 13.8248 34.9621L12.7848 38C13.1599 37.9914 13.5264 37.9313 13.9015 37.8284L15.2483 33.8893Z" fill="white"/>
<path d="M18.4882 34.1982L18.2154 34.9963L18.8803 34.49L18.4882 34.1982Z" fill="white"/>
<path d="M30.9266 19.0001L31.7023 17.9702L32.2649 16.3311L31.7278 15.6188C31.6596 15.533 31.6 15.4472 31.5403 15.3528L30.4918 18.4165L30.9266 19.0001Z" fill="white"/>
<path d="M7.04668 19.3003L6.82505 18.9999L5.4782 20.7935L5.27362 21.3857L5.99819 22.3554L7.04668 19.3003Z" fill="white"/>
<path d="M20.6365 29.7957L19.767 30.4565L19.4005 31.5292L20.2358 32.1643L21.1735 29.4181C20.9945 29.5383 20.8155 29.667 20.6365 29.7957Z" fill="white"/>
<path d="M30.5342 27.8134H30.5257L29.4431 27.8992L28.4969 30.6625L29.588 30.5767L30.5342 27.8134Z" fill="white"/>
<path d="M32.7934 27.6419L31.7023 27.7277L30.7561 30.491L31.8472 30.4052L32.7934 27.6419Z" fill="white"/>
<path d="M28.2664 27.9937L27.8402 28.028L27.1838 28.0709L26.2376 30.8343L27.3287 30.7484L28.2664 27.9937Z" fill="white"/>
<path d="M10.0473 29.8044L9.91087 28.0194L9.8512 27.2814L7.67749 33.649C7.75421 34.2412 7.9247 34.7904 8.1719 35.2796L10.0473 29.8044Z" fill="white"/>
<path d="M27.6528 7.44905L27.8489 9.97207L29.9714 3.7675C29.8436 3.26117 29.6475 2.79776 29.3918 2.37726L27.6528 7.44905Z" fill="white"/>
<path d="M24.8737 2.70333C24.9589 2.69475 25.0441 2.68616 25.1294 2.68616C25.3851 2.68616 25.6408 2.72907 25.8881 2.81489L26.7575 0.283281C26.4421 0.171719 26.1182 0.0944833 25.7772 0.0515747L24.8737 2.70333Z" fill="white"/>
<path d="M26.8345 3.41562C27.1499 3.74172 27.38 4.17939 27.4397 4.72004L28.5819 1.39033C28.3262 1.15004 28.0449 0.935502 27.7466 0.746704L26.8345 3.41562Z" fill="white"/>
<path d="M17.1156 8.20429L17.5589 7.8696L18.1044 6.28199L17.2691 5.64694L16.1865 8.81359C16.5104 8.63338 16.8173 8.42742 17.1156 8.20429Z" fill="white"/>
<path d="M32.7254 21.4029L32.947 20.7592L32.5975 21.2227L32.7254 21.4029Z" fill="white"/>
<path d="M19.0168 3.61243L19.1191 3.3299L18.8804 3.50969L19.0168 3.61243Z" fill="white"/>
<path d="M19.929 4.30806L20.7643 4.94311L22.0856 1.07275L20.6621 2.15405L19.929 4.30806Z" fill="white"/>
<path d="M22.0773 4.43679L23.5094 3.34691L24.6432 0.0257874C24.2596 0.0601142 23.876 0.145931 23.5009 0.283239L22.0773 4.43679Z" fill="white"/>
</svg>
