<svg width="28" height="28" viewBox="0 0 28 28" fill="none" xmlns="http://www.w3.org/2000/svg">
<path d="M5.2938 7.49953L5.13767 9.56095C5.08147 10.2628 4.83166 10.9394 4.41323 11.5022L3.77621 12.3559L2.55215 13.9936L0.741034 16.4218C-0.995139 18.7488 0.49747 22.1002 3.37027 22.3215L5.44369 22.4796L5.2938 20.4877L3.52016 20.3486C2.6146 20.2791 2.23364 19.6214 2.10874 19.3432C1.98383 19.065 1.75276 18.3378 2.30234 17.6043L3.77621 15.6251L5.00028 14L5.97453 12.6973C6.61779 11.831 7.00499 10.8003 7.08618 9.71904L7.26729 7.3541L5.2938 7.49953Z" fill="white"/>
<path d="M20.1075 24.4335C20.0326 25.4642 19.1707 26.0206 18.4088 26.0206C18.0466 26.0206 17.7093 25.9005 17.4033 25.6729L15.4486 24.1805L13.8311 22.9412L12.5445 21.9547C11.6889 21.3034 10.671 20.9114 9.60304 20.8292L7.26733 20.6458L7.41722 22.6376L9.45316 22.7957C10.1464 22.8526 10.8146 23.1056 11.3704 23.5292L12.2135 24.1742L13.8311 25.4136L16.2292 27.2474C16.9037 27.7596 17.6656 27.9935 18.4088 27.9935C20.2012 27.9935 21.8999 26.634 22.056 24.5789L22.2121 22.4796L20.2449 22.6313L20.1075 24.4335Z" fill="white"/>
<path d="M7.54776 3.56006C7.6227 2.52935 8.48454 1.97289 9.24646 1.97289C9.60868 1.97289 9.94593 2.09304 10.2519 2.32068L12.2067 3.81299L13.8305 5.0587L15.117 6.03882C15.9726 6.69013 16.9905 7.08218 18.0585 7.16438L20.3942 7.34776L20.2443 5.3559L18.2084 5.19781C17.5151 5.1409 16.8469 4.88797 16.2911 4.4643L15.448 3.81932L13.8305 2.57994L11.4323 0.746158C10.7516 0.233965 9.98964 0 9.24646 0C7.45408 0 5.75538 1.35953 5.59925 3.4083L5.44312 5.50766L7.41036 5.3559L7.54776 3.56006Z" fill="white"/>
<path d="M24.2856 5.66584L22.2121 5.50775L22.362 7.49961L24.1357 7.63873C25.035 7.70829 25.4222 8.36592 25.5471 8.64414C25.672 8.92237 25.9031 9.64956 25.3535 10.3831L23.8796 12.3623L22.6556 14L21.6875 15.3027C21.0443 16.169 20.6571 17.1997 20.5759 18.281L20.3948 20.6459L22.362 20.4941L22.5182 18.4327C22.5744 17.7308 22.8242 17.0542 23.2426 16.4914L23.8796 15.6378L25.1037 14L26.9148 11.5719C28.6447 9.23854 27.1521 5.89348 24.2856 5.66584Z" fill="white"/>
<path d="M2.95158 11.2494L2.42079 10.5348L1.65271 12.7859L2.1835 13.5005L2.95158 11.2494Z" fill="white"/>
<path d="M5.74906 5.4888L5.05591 7.51861L5.2932 7.50596L5.84897 7.4617L6.54212 5.42557L5.74906 5.4888Z" fill="white"/>
<path d="M21.6874 12.6975L21.7623 12.7987L22.6303 10.2377C22.5741 10.0164 22.5304 9.79507 22.5179 9.5611L22.4367 8.5304L21.2502 12.0209C21.3814 12.2549 21.525 12.4825 21.6874 12.6975Z" fill="white"/>
<path d="M4.09415 5.6152L3.401 7.65764C3.43847 7.65132 3.48218 7.645 3.52589 7.645L4.20031 7.59441L4.89345 5.55829L4.09415 5.6152Z" fill="white"/>
<path d="M0.0915561 10.1682L1.34671 6.48163C0.297627 7.35425 -0.214428 8.79598 0.0915561 10.1682Z" fill="white"/>
<path d="M10.8707 6.91783L11.8261 4.11658L11.364 4.47069C11.1892 4.60348 11.0081 4.7173 10.8145 4.81847L10.0277 7.12018C10.315 7.07592 10.596 7.00636 10.8707 6.91783Z" fill="white"/>
<path d="M20.5758 9.71916C20.607 10.1239 20.6819 10.5286 20.7943 10.9143L22.2868 6.51953L22.2119 5.51412L22.1494 4.66046L20.5446 9.35873L20.5758 9.71916Z" fill="white"/>
<path d="M9.15952 7.20238L9.85891 5.14096C9.72153 5.16625 9.58415 5.18522 9.44677 5.19787L9.0596 5.22949L8.36646 7.26561L9.15952 7.20238Z" fill="white"/>
<path d="M7.26095 7.34779L7.50449 7.32882L8.19764 5.29901L7.41082 5.35592H7.40457L6.71143 7.39205L7.26095 7.34779Z" fill="white"/>
<path d="M3.52607 12.0209L3.10144 13.2666L3.77585 12.3623L3.52607 12.0209Z" fill="white"/>
<path d="M26.9144 16.4283L26.4273 15.7706L25.628 18.1229C25.8029 18.6604 25.6467 19.141 25.5531 19.356C25.4781 19.5267 25.297 19.8429 24.9661 20.0768L24.198 22.3406L24.2917 22.3343C24.5477 22.3153 24.785 22.2711 25.016 22.2078L26.9581 16.4978C26.9394 16.4662 26.9269 16.4472 26.9144 16.4283Z" fill="white"/>
<path d="M16.5288 21.1707L15.5234 24.1174L16.2915 23.5293C16.3789 23.4661 16.4664 23.4028 16.56 23.3459L17.3843 20.9241C17.0908 20.9873 16.8036 21.0695 16.5288 21.1707Z" fill="white"/>
<path d="M18.2588 20.8166L17.5469 22.916C17.7654 22.859 17.984 22.8211 18.2088 22.8021L18.3649 22.7895L19.0581 20.7534L18.2588 20.8166Z" fill="white"/>
<path d="M27.4579 17.4653L26.0029 21.7462C26.5587 21.3794 26.9896 20.8672 27.2768 20.2792L27.5766 19.4065C27.7077 18.7742 27.6765 18.1039 27.4579 17.4653Z" fill="white"/>
<path d="M7.54821 24.4337L7.51074 23.9784L6.54907 26.805C6.73017 27.001 6.92999 27.178 7.14231 27.3298L7.83546 25.2874C7.67934 25.0534 7.57318 24.7688 7.54821 24.4337Z" fill="white"/>
<path d="M6.74822 16.7507L5.32446 20.9304L5.44311 22.486L5.46809 22.7895L7.0667 18.0975C7.01674 17.6359 6.91058 17.1807 6.74822 16.7507Z" fill="white"/>
<path d="M12.2633 24.2187L11.1705 27.4246C11.258 27.3677 11.3391 27.3108 11.4266 27.2476L12.2134 26.6468L12.8815 24.6866L12.2633 24.2187Z" fill="white"/>
<path d="M5.96769 15.3027L5.73664 14.9865L4.91235 17.4084C5.031 17.7372 5.11218 18.0786 5.13716 18.4264L5.17463 18.9133L6.26118 15.7263C6.16752 15.5872 6.07385 15.4418 5.96769 15.3027Z" fill="white"/>
<path d="M2.10861 8.64415C2.15232 8.54298 2.2335 8.39122 2.36464 8.23313L3.23263 5.68481C2.93289 5.71643 2.65189 5.78599 2.38961 5.88084L0.553711 11.2873C0.609912 11.3822 0.678602 11.477 0.747293 11.5719L1.07825 12.0208L1.95874 9.4409C1.94001 9.08679 2.03992 8.79591 2.10861 8.64415Z" fill="white"/>
<path d="M25.3159 14.2909L24.5479 16.542L25.0786 17.2503L25.8467 14.9991L25.3159 14.2909Z" fill="white"/>
<path d="M9.2032 26.0208C8.9659 26.0145 8.71612 25.9513 8.49132 25.8438L7.85437 27.7155C8.07917 27.8103 8.31647 27.8799 8.55376 27.9305L9.2032 26.0208Z" fill="white"/>
<path d="M11.1703 24.9711L10.2523 25.673C10.2149 25.7046 10.1712 25.7299 10.1274 25.7615L9.3656 28C9.64036 27.9937 9.90888 27.9494 10.1836 27.8735L11.1703 24.9711Z" fill="white"/>
<path d="M13.5437 25.1987L13.3439 25.7868L13.8309 25.4137L13.5437 25.1987Z" fill="white"/>
<path d="M22.6555 14.0001L23.2238 13.2413L23.6359 12.0335L23.2425 11.5086C23.1925 11.4454 23.1488 11.3822 23.1051 11.3126L22.337 13.5701L22.6555 14.0001Z" fill="white"/>
<path d="M5.16215 14.2213L4.99979 14L4.01315 15.3216L3.86328 15.7579L4.39407 16.4724L5.16215 14.2213Z" fill="white"/>
<path d="M15.1174 21.9548L14.4804 22.4417L14.2119 23.2321L14.8239 23.7L15.5108 21.6765C15.3796 21.7651 15.2485 21.8599 15.1174 21.9548Z" fill="white"/>
<path d="M22.3681 20.4941H22.3618L21.5688 20.5573L20.8756 22.5934L21.6749 22.5302L22.3681 20.4941Z" fill="white"/>
<path d="M24.0231 20.3677L23.2238 20.4309L22.5306 22.4671L23.3299 22.4038L24.0231 20.3677Z" fill="white"/>
<path d="M20.7068 20.627L20.3946 20.6523L19.9137 20.6839L19.2206 22.72L20.0199 22.6568L20.7068 20.627Z" fill="white"/>
<path d="M7.36026 21.9612L7.26035 20.6459L7.21663 20.1021L5.62427 24.7941C5.68047 25.2304 5.80536 25.6351 5.98645 25.9955L7.36026 21.9612Z" fill="white"/>
<path d="M20.2573 5.48876L20.401 7.34783L21.9558 2.77603C21.8622 2.40295 21.7186 2.06149 21.5312 1.75165L20.2573 5.48876Z" fill="white"/>
<path d="M18.2214 1.99195C18.2839 1.98563 18.3463 1.9793 18.4088 1.9793C18.5961 1.9793 18.7834 2.01092 18.9645 2.07415L19.6015 0.208756C19.3704 0.126552 19.1331 0.0696418 18.8834 0.0380249L18.2214 1.99195Z" fill="white"/>
<path d="M19.6578 2.5168C19.8889 2.75709 20.0575 3.07958 20.1012 3.47795L20.938 1.02448C20.7506 0.84743 20.5446 0.689346 20.326 0.550232L19.6578 2.5168Z" fill="white"/>
<path d="M12.5382 6.04528L12.8629 5.79867L13.2626 4.62885L12.6506 4.16092L11.8575 6.49424C12.0948 6.36145 12.3196 6.20969 12.5382 6.04528Z" fill="white"/>
<path d="M23.9733 15.7705L24.1357 15.2963L23.8796 15.6378L23.9733 15.7705Z" fill="white"/>
<path d="M13.931 2.66179L14.0059 2.45361L13.8311 2.58609L13.931 2.66179Z" fill="white"/>
<path d="M14.5991 3.17438L15.2111 3.64231L16.179 0.790466L15.1362 1.58721L14.5991 3.17438Z" fill="white"/>
<path d="M16.173 3.26923L17.2221 2.46616L18.0526 0.0190125C17.7716 0.0443059 17.4906 0.10754 17.2158 0.208714L16.173 3.26923Z" fill="white"/>
</svg>
