<svg width="261" height="256" viewBox="0 0 261 256" fill="none" xmlns="http://www.w3.org/2000/svg">
<path d="M88.1275 97.0207L87.3579 107.1C87.0808 110.531 85.8495 113.84 83.787 116.591L80.6472 120.765L74.6137 128.773L65.6865 140.645C57.1288 152.022 64.486 168.409 78.6462 169.491L88.8663 170.264L88.1275 160.525L79.385 159.844C74.9215 159.504 73.0437 156.289 72.4281 154.929C71.8124 153.568 70.6734 150.013 73.3823 146.426L80.6472 136.749L86.6807 128.804L91.4828 122.435C94.6535 118.199 96.562 113.159 96.9622 107.873L97.8549 96.3096L88.1275 97.0207Z" fill="#5BB89E"/>
<path d="M161.145 179.817C160.776 184.856 156.528 187.577 152.772 187.577C150.987 187.577 149.324 186.989 147.816 185.876L138.181 178.58L130.208 172.52L123.867 167.697C119.649 164.513 114.632 162.596 109.368 162.194L97.855 161.297L98.5938 171.036L108.629 171.809C112.046 172.087 115.34 173.324 118.079 175.395L122.235 178.549L130.208 184.609L142.029 193.575C145.353 196.079 149.109 197.223 152.772 197.223C161.607 197.223 169.98 190.576 170.749 180.528L171.519 170.263L161.822 171.005L161.145 179.817Z" fill="#5BB89E"/>
<path d="M99.2372 77.7589C99.6066 72.7194 103.855 69.9987 107.61 69.9987C109.396 69.9987 111.058 70.5861 112.566 71.6991L122.201 78.9956L130.205 85.0863L136.546 89.8784C140.764 93.0629 145.781 94.9798 151.045 95.3817L162.558 96.2783L161.819 86.5394L151.784 85.7665C148.367 85.4882 145.073 84.2515 142.334 82.1801L138.178 79.0265L130.205 72.9667L118.384 64.0008C115.029 61.4965 111.273 60.3525 107.61 60.3525C98.7755 60.3525 90.4024 66.9997 89.6329 77.0169L88.8633 87.2814L98.56 86.5394L99.2372 77.7589Z" fill="#5BB89E"/>
<path d="M181.739 88.0547L171.519 87.2817L172.258 97.0207L181 97.7008C185.433 98.0409 187.342 101.256 187.957 102.617C188.573 103.977 189.712 107.532 187.003 111.119L179.738 120.796L173.705 128.804L168.933 135.172C165.763 139.408 163.854 144.448 163.454 149.734L162.561 161.297L172.258 160.555L173.028 150.476C173.305 147.045 174.536 143.737 176.598 140.985L179.738 136.811L185.772 128.804L194.699 116.931C203.226 105.523 195.869 89.1677 181.739 88.0547Z" fill="#5BB89E"/>
<path d="M76.5822 115.354L73.9659 111.86L70.18 122.867L72.7963 126.36L76.5822 115.354Z" fill="#5BB89E"/>
<path d="M90.3715 87.1886L86.955 97.113L88.1246 97.0512L90.864 96.8347L94.2806 86.8794L90.3715 87.1886Z" fill="#5BB89E"/>
<path d="M168.934 122.433L169.303 122.928L173.581 110.406C173.304 109.324 173.089 108.242 173.027 107.098L172.627 102.059L166.779 119.125C167.425 120.269 168.133 121.382 168.934 122.433Z" fill="#5BB89E"/>
<path d="M82.215 87.8066L78.7984 97.7928C78.9831 97.7619 79.1985 97.731 79.414 97.731L82.7382 97.4836L86.1548 87.5283L82.215 87.8066Z" fill="#5BB89E"/>
<path d="M62.4851 110.067L68.6719 92.0422C63.5009 96.3088 60.9769 103.358 62.4851 110.067Z" fill="#5BB89E"/>
<path d="M115.616 94.1758L120.326 80.4795L118.048 82.2109C117.186 82.8601 116.294 83.4166 115.339 83.9113L111.461 95.1652C112.877 94.9487 114.262 94.6086 115.616 94.1758Z" fill="#5BB89E"/>
<path d="M163.454 107.873C163.608 109.852 163.977 111.83 164.531 113.716L171.888 92.2288L171.518 87.313L171.21 83.1392L163.3 106.111L163.454 107.873Z" fill="#5BB89E"/>
<path d="M107.182 95.5666L110.629 85.4875C109.952 85.6112 109.275 85.704 108.598 85.7658L106.689 85.9204L103.273 95.8757L107.182 95.5666Z" fill="#5BB89E"/>
<path d="M97.8239 96.2782L99.0243 96.1854L102.441 86.261L98.5626 86.5392H98.5318L95.1152 96.4946L97.8239 96.2782Z" fill="#5BB89E"/>
<path d="M79.4141 119.125L77.321 125.216L80.6453 120.795L79.4141 119.125Z" fill="#5BB89E"/>
<path d="M194.697 140.675L192.296 137.46L188.357 148.961C189.218 151.589 188.449 153.939 187.987 154.99C187.618 155.825 186.725 157.371 185.094 158.515L181.308 169.583L181.77 169.552C183.032 169.459 184.201 169.243 185.34 168.934L194.913 141.015C194.82 140.861 194.759 140.768 194.697 140.675Z" fill="#5BB89E"/>
<path d="M143.506 163.863L138.55 178.27L142.336 175.395C142.767 175.086 143.198 174.777 143.66 174.499L147.723 162.657C146.276 162.966 144.86 163.368 143.506 163.863Z" fill="#5BB89E"/>
<path d="M152.033 162.132L148.524 172.396C149.601 172.118 150.679 171.933 151.787 171.84L152.556 171.778L155.973 161.823L152.033 162.132Z" fill="#5BB89E"/>
<path d="M197.376 145.746L190.204 166.677C192.944 164.884 195.068 162.38 196.484 159.504L197.961 155.238C198.607 152.146 198.453 148.869 197.376 145.746Z" fill="#5BB89E"/>
<path d="M99.2396 179.816L99.0549 177.59L94.3148 191.41C95.2074 192.368 96.1924 193.234 97.2389 193.976L100.655 183.99C99.886 182.846 99.3627 181.454 99.2396 179.816Z" fill="#5BB89E"/>
<path d="M95.2967 142.252L88.2789 162.689L88.8637 170.294L88.9868 171.778L96.8665 148.838C96.6202 146.581 96.097 144.355 95.2967 142.252Z" fill="#5BB89E"/>
<path d="M122.481 178.765L117.095 194.44C117.525 194.162 117.926 193.884 118.357 193.574L122.235 190.637L125.528 181.053L122.481 178.765Z" fill="#5BB89E"/>
<path d="M91.4489 135.171L90.31 133.625L86.2471 145.467C86.8319 147.074 87.232 148.744 87.3551 150.444L87.5398 152.825L92.8955 137.243C92.4338 136.563 91.9721 135.852 91.4489 135.171Z" fill="#5BB89E"/>
<path d="M72.427 102.616C72.6425 102.122 73.0426 101.38 73.689 100.607L77.9674 88.1472C76.49 88.3018 75.1049 88.6419 73.8121 89.1056L64.7628 115.54C65.0398 116.004 65.3784 116.467 65.717 116.931L67.3483 119.126L71.6883 106.512C71.596 104.781 72.0884 103.358 72.427 102.616Z" fill="#5BB89E"/>
<path d="M186.817 130.226L183.032 141.232L185.648 144.695L189.434 133.688L186.817 130.226Z" fill="#5BB89E"/>
<path d="M107.397 187.576C106.228 187.545 104.996 187.236 103.888 186.711L100.749 195.862C101.857 196.326 103.026 196.666 104.196 196.913L107.397 187.576Z" fill="#5BB89E"/>
<path d="M117.093 182.445L112.569 185.877C112.384 186.031 112.169 186.155 111.953 186.309L108.198 197.254C109.552 197.223 110.876 197.007 112.23 196.636L117.093 182.445Z" fill="#5BB89E"/>
<path d="M128.792 183.557L127.807 186.433L130.208 184.609L128.792 183.557Z" fill="#5BB89E"/>
<path d="M173.704 128.803L176.505 125.093L178.537 119.188L176.598 116.622C176.351 116.312 176.136 116.003 175.921 115.663L172.135 126.701L173.704 128.803Z" fill="#5BB89E"/>
<path d="M87.4783 129.885L86.678 128.803L81.8148 135.265L81.076 137.398L83.6923 140.892L87.4783 129.885Z" fill="#5BB89E"/>
<path d="M136.549 167.697L133.409 170.077L132.086 173.942L135.102 176.23L138.488 166.336C137.842 166.769 137.195 167.233 136.549 167.697Z" fill="#5BB89E"/>
<path d="M172.288 160.555H172.257L168.348 160.864L164.932 170.819L168.872 170.51L172.288 160.555Z" fill="#5BB89E"/>
<path d="M180.446 159.937L176.506 160.246L173.089 170.201L177.029 169.892L180.446 159.937Z" fill="#5BB89E"/>
<path d="M164.099 161.204L162.56 161.328L160.19 161.482L156.774 171.438L160.713 171.129L164.099 161.204Z" fill="#5BB89E"/>
<path d="M98.3128 167.728L97.8203 161.297L97.6049 158.638L89.756 181.578C90.033 183.712 90.6486 185.69 91.5412 187.453L98.3128 167.728Z" fill="#5BB89E"/>
<path d="M161.884 87.1885L162.592 96.2782L170.256 73.9251C169.794 72.101 169.086 70.4314 168.163 68.9165L161.884 87.1885Z" fill="#5BB89E"/>
<path d="M151.849 70.0898C152.156 70.0589 152.464 70.028 152.772 70.028C153.695 70.028 154.619 70.1825 155.511 70.4917L158.651 61.3711C157.512 60.9692 156.342 60.691 155.111 60.5364L151.849 70.0898Z" fill="#5BB89E"/>
<path d="M158.929 72.657C160.068 73.8318 160.899 75.4086 161.114 77.3564L165.239 65.3605C164.315 64.4949 163.3 63.7219 162.222 63.0417L158.929 72.657Z" fill="#5BB89E"/>
<path d="M123.836 89.9091L125.436 88.7033L127.406 82.9837L124.39 80.6958L120.481 92.1042C121.65 91.455 122.758 90.713 123.836 89.9091Z" fill="#5BB89E"/>
<path d="M180.2 137.46L181 135.141L179.738 136.81L180.2 137.46Z" fill="#5BB89E"/>
<path d="M130.7 73.366L131.07 72.3481L130.208 72.9959L130.7 73.366Z" fill="#5BB89E"/>
<path d="M133.994 75.8733L137.011 78.1612L141.781 64.2175L136.641 68.1131L133.994 75.8733Z" fill="#5BB89E"/>
<path d="M141.752 76.3363L146.923 72.4098L151.016 60.4448C149.631 60.5685 148.246 60.8777 146.892 61.3723L141.752 76.3363Z" fill="#5BB89E"/>
<path d="M85.625 252.44L94.4528 255.558C94.7286 255.655 94.8747 255.618 95.0115 255.356L108.164 230.038C108.301 229.776 108.137 229.363 107.861 229.266L104.078 227.93C103.802 227.832 103.656 227.869 103.519 228.131L98.4951 237.837L93.8054 236.181C90.8103 235.123 87.8147 236.326 86.3233 239.168L82.9835 245.612C81.4922 248.454 82.6299 251.383 85.625 252.44ZM90.5863 241.781C90.9968 240.996 92.0889 240.539 92.9165 240.831L96.3057 242.028L92.2399 249.901L88.6142 248.62C87.7866 248.328 87.5341 247.663 87.9052 246.863L90.5863 241.781Z" fill="white"/>
<path d="M53.8062 237.718L56.5637 239.682C56.9042 239.924 56.705 239.988 56.3068 240.114L51.1056 241.798C50.8822 241.895 50.5227 241.896 50.2503 241.702L47.1183 239.471C46.7779 239.229 46.9528 239.199 47.4433 239.087L53.019 237.67C53.1841 237.583 53.6019 237.572 53.8062 237.718ZM53.7831 235.084L69.5118 218.476C70.1231 217.833 71.2987 217.696 72.0136 218.205L74.1243 219.708C74.8392 220.217 74.9326 220.951 74.3213 221.593L58.5585 238.178C58.3548 238.392 58.3991 238.834 58.6374 239.003L61.9056 241.331C62.1439 241.501 62.2945 241.505 62.4983 241.291L78.7557 224.084C80.9729 221.764 80.6868 218.635 78.0995 216.792L74.1505 213.98C71.5631 212.137 68.3521 212.467 66.1349 214.788L49.8434 231.971C49.6396 232.185 49.684 232.627 49.9223 232.796L53.1904 235.124C53.4287 235.294 53.5794 235.298 53.7831 235.084Z" fill="white"/>
<path d="M31.2915 214.849L33.8469 217.942C34.0332 218.168 34.1775 218.211 34.4297 218.057L58.7406 203.123C58.9928 202.969 59.0642 202.531 58.8779 202.305L51.1051 192.896C50.9188 192.671 50.7745 192.627 50.5223 192.782L47.3674 194.737C47.1152 194.892 47.0437 195.33 47.2301 195.556L52.0481 201.388L31.4287 214.031C31.1766 214.185 31.1051 214.623 31.2915 214.849Z" fill="white"/>
<path d="M19.0897 180.483L17.4076 176.84C17.285 176.574 17.1741 176.533 16.8909 176.618L14.5499 177.331C11.4734 178.245 10.169 181.103 11.5006 183.987L13.5331 188.389C14.8647 191.272 17.8162 192.58 20.8927 191.665L26.7452 189.884C29.7284 188.967 31.0123 186.164 29.7157 183.356L28.1563 179.979C27.7533 179.106 28.0743 178.406 29.0171 178.154L33.7371 176.712C34.5485 176.475 35.582 176.919 35.9324 177.677L37.0888 180.182C37.4392 180.941 37.1766 181.568 36.3652 181.805L33.2506 182.737C32.9675 182.821 32.7866 183.227 32.9092 183.493L34.5913 187.136C34.7139 187.401 34.8249 187.442 35.108 187.357L38.9026 186.204C41.9792 185.289 43.2835 182.431 41.9519 179.548L39.9195 175.146C38.5878 172.262 35.6364 170.955 32.5598 171.869L26.0272 173.873C23.0645 174.734 21.8565 177.502 23.1355 180.272L24.8176 183.915C25.2205 184.787 24.8616 185.505 23.9567 185.739L19.7272 187.048C18.9157 187.284 17.8648 186.803 17.5143 186.044L16.2703 183.35C15.9199 182.591 16.2 182.001 17.0115 181.765L18.7483 181.239C19.0314 181.154 19.2123 180.748 19.0897 180.483Z" fill="white"/>
<path d="M29.317 141.857L1.85828 148.406C1.61654 148.484 1.3233 148.782 1.36691 149.071L2.05227 153.617C2.09589 153.907 2.20347 154.06 2.46389 154.105L31.8291 160.202C32.166 160.194 32.5832 159.877 32.5271 159.505L31.8729 155.166C31.8418 154.959 31.7818 154.842 31.5627 154.79L26.7985 154.029L25.8888 147.995L30.1496 147.099C30.3625 147.109 30.6081 146.776 30.577 146.57L29.9228 142.23C29.8667 141.858 29.6414 141.766 29.317 141.857ZM21.8917 153.163L12.3922 151.551L8.81866 151.118L12.2551 150.642L21.2499 148.906L21.8917 153.163Z" fill="white"/>
<path d="M30.0737 113.785L18.8958 114.436C18.3451 112.254 16.7831 110.695 14.5078 110.053L7.39741 108.045C4.31027 107.167 1.67686 108.88 1.25463 112.028L0.010168 121.307C-0.0287215 121.597 0.0374615 121.733 0.321874 121.813L27.7969 129.504C28.0813 129.584 28.4516 129.339 28.4905 129.049L29.0238 125.072C29.0627 124.782 28.9965 124.647 28.7121 124.566L18.3075 121.653L18.5964 119.499L29.3545 118.833C29.6086 118.825 29.8961 118.568 29.9294 118.32L30.4905 114.136C30.5405 113.763 30.4577 113.752 30.0737 113.785ZM5.09462 117.983L5.60574 114.172C5.72241 113.302 6.32204 112.919 7.18084 113.118L12.8277 114.719C13.6809 114.96 14.3458 115.977 14.2291 116.847L13.7513 120.409L5.09462 117.983Z" fill="white"/>
<path d="M18.9876 62.4569L14.1899 70.4962C14.04 70.7474 14.0475 70.8979 14.2773 71.0838L36.5042 88.9721C36.734 89.1579 37.171 89.078 37.321 88.8268L39.3771 85.3814C39.5271 85.1301 39.5195 84.9796 39.2897 84.7938L30.7653 77.9544L33.3141 73.6835C34.9419 70.9559 34.3538 67.7819 31.8617 65.7594L26.2027 61.214C23.7107 59.1915 20.6154 59.7292 18.9876 62.4569ZM28.4585 69.423C29.148 69.9805 29.3801 71.1411 28.9303 71.8948L27.0883 74.9813L20.1726 69.4427L22.1431 66.1408C22.5928 65.3871 23.295 65.2708 24.0059 65.7923L28.4585 69.423Z" fill="white"/>
<path d="M62.6592 54.5042L53.5612 47.9775C54.5063 45.9348 54.2731 43.7403 52.9089 41.8093L48.6457 35.7749C46.7986 33.1502 43.6739 32.8248 41.3648 35.0061L34.5593 41.4352C34.3466 41.6361 34.3129 41.783 34.4834 42.0243L50.9992 65.2892C51.1697 65.5305 51.612 65.5727 51.8247 65.3718L54.7414 62.6165C54.954 62.4156 54.9878 62.2687 54.8173 62.0273L48.5635 53.2163L50.1433 51.7238L58.9239 57.9754C59.1265 58.129 59.5114 58.1104 59.6936 57.9381L62.7622 55.0393C63.0357 54.781 62.9783 54.7202 62.6592 54.5042ZM40.6027 42.0506L43.3979 39.41C44.0359 38.8073 44.7432 38.8866 45.2852 39.582L48.667 44.3791C49.1786 45.1032 49.0555 46.3119 48.4175 46.9146L45.8046 49.383L40.6027 42.0506Z" fill="white"/>
<path d="M70.267 41.4068C71.3078 44.4429 74.2174 45.6277 77.0436 44.1778L81.3573 41.9648C84.1835 40.5149 85.3674 37.5119 84.3266 34.4758L78.1235 16.7076C77.0827 13.6715 74.1731 12.4867 71.3469 13.9366L67.0332 16.1496C64.207 17.5995 63.0231 20.6025 64.0639 23.6386L70.267 41.4068ZM74.5567 38.6894L68.8154 22.1874C68.5454 21.3865 68.983 20.3165 69.7267 19.9349L72.1811 18.6758C72.9248 18.2942 73.5256 18.5497 73.7956 19.3507L79.5369 35.8526C79.8069 36.6536 79.4066 37.7045 78.6628 38.086L76.2085 39.3452C75.4647 39.7267 74.8267 39.4903 74.5567 38.6894Z" fill="white"/>
<path d="M115.072 30.1745L119.072 29.8681C119.364 29.8458 119.483 29.7529 119.502 29.458L121.001 5.24058L125.835 4.87032C126.126 4.84798 126.245 4.75506 126.264 4.46015L126.513 0.584737C126.532 0.289835 126.215 -0.0212068 125.923 0.00113659L111.504 1.10554C111.212 1.12788 111.094 1.2208 111.074 1.51571L110.868 5.38793C110.849 5.68284 111.124 5.99707 111.416 5.97472L116 5.62361L114.482 29.5909C114.463 29.8858 114.78 30.1969 115.072 30.1745Z" fill="white"/>
<path d="M151.971 31.2076L151.939 20.0108C154.148 19.5815 155.791 18.108 156.558 15.8716L158.956 8.88307C160.003 5.84916 158.438 3.12512 155.318 2.5296L146.122 0.774372C145.834 0.719521 145.695 0.778123 145.599 1.05766L136.402 28.0658C136.306 28.3453 136.531 28.7286 136.818 28.7834L140.76 29.5357C141.047 29.5905 141.186 29.5319 141.282 29.2524L144.766 19.0247L146.9 19.4321L146.971 30.2106C146.965 30.4647 147.205 30.7659 147.451 30.8129L151.598 31.6044C151.967 31.6749 151.983 31.5928 151.971 31.2076ZM149.16 6.03472L152.937 6.75562C153.799 6.92017 154.149 7.54007 153.902 8.38653L151.992 13.9363C151.704 14.7749 150.652 15.3826 149.79 15.218L146.259 14.5442L149.16 6.03472Z" fill="white"/>
<path d="M179.232 41.4142L189.888 15.2737C189.964 15.0313 189.893 14.6195 189.632 14.4866L185.537 12.3981C185.276 12.2652 185.089 12.2637 184.901 12.4491L162.852 32.78C162.663 33.0588 162.677 33.5823 163.012 33.7532L166.922 35.7468C167.108 35.8417 167.239 35.8614 167.408 35.7132L170.8 32.282L176.236 35.054L174.485 39.0402C174.352 39.2074 174.48 39.601 174.666 39.6959L178.576 41.6894C178.911 41.8603 179.118 41.7311 179.232 41.4142ZM174.36 28.7961L181.199 22.0089L183.631 19.3551L182.018 22.4266L178.195 30.7516L174.36 28.7961Z" fill="white"/>
<path d="M192.576 50.9691L189.491 48.4039C189.266 48.2169 189.287 48.1259 189.506 47.9276L210.622 28.7408C210.842 28.5425 211.345 28.5259 211.57 28.7129L214.655 31.2781C214.88 31.4651 214.858 31.5561 214.639 31.7544L193.523 50.9412C193.304 51.1395 192.801 51.1561 192.576 50.9691Z" fill="white"/>
<path d="M234.401 53.028L226.28 57.6032L218.694 62.1927L230.459 48.097C230.659 47.9456 230.741 47.5691 230.589 47.3692L228.042 44.0034C227.865 43.7702 227.723 43.7206 227.464 43.8639L202.541 57.7508C202.282 57.894 202.192 58.3291 202.369 58.5624L204.69 61.6282C204.866 61.8615 205.008 61.911 205.267 61.7677L214.614 56.5267L221.466 52.2832L209.411 66.9653C209.211 67.1167 209.129 67.4932 209.281 67.6932L211.627 70.7923C211.803 71.0256 211.946 71.0751 212.204 70.9318L237.128 57.0449C237.386 56.9017 237.476 56.4666 237.299 56.2333L234.979 53.1675C234.802 52.9343 234.66 52.8847 234.401 53.028Z" fill="white"/>
<path d="M221.173 86.8012L219.542 83.1355C219.423 82.8682 219.482 82.796 219.766 82.7152L247.193 74.8548C247.478 74.774 247.936 74.9817 248.055 75.249L249.686 78.9147C249.805 79.182 249.746 79.2542 249.462 79.335L222.035 87.1954C221.75 87.2761 221.292 87.0684 221.173 86.8012Z" fill="white"/>
<path d="M257.768 107.157L248.461 107.666L239.627 108.424L256.415 100.991C256.661 100.944 256.902 100.642 256.854 100.396L256.059 96.2502C256.004 95.9628 255.898 95.8555 255.603 95.8695L227.107 97.2922C226.812 97.3063 226.539 97.6566 226.594 97.944L227.318 101.72C227.374 102.008 227.479 102.115 227.774 102.101L238.476 101.538L246.499 100.765L229.19 108.596C228.944 108.643 228.704 108.945 228.751 109.191L229.484 113.008C229.539 113.295 229.644 113.403 229.94 113.389L258.435 111.966C258.73 111.952 259.004 111.602 258.949 111.314L258.224 107.538C258.169 107.251 258.063 107.143 257.768 107.157Z" fill="white"/>
<path d="M246.554 138.661L242.949 137.751C242.662 137.68 242.3 137.938 242.271 138.229L242.007 140.429L236.718 139.139C235.899 138.93 235.234 138.023 235.318 137.191L235.574 134.654C235.658 133.823 236.203 133.416 237.023 133.624L253.995 137.774C254.814 137.983 255.474 138.932 255.39 139.763L255.134 142.3C255.05 143.132 254.509 143.497 253.69 143.289L251.927 142.859C251.64 142.788 251.278 143.045 251.249 143.336L250.846 147.328C250.817 147.619 250.891 147.711 251.178 147.782L253.556 148.358C256.671 149.134 259.247 147.336 259.566 144.176L260.032 139.56C260.351 136.4 258.473 133.774 255.359 132.997L237.073 128.547C233.959 127.77 231.383 129.569 231.064 132.729L230.598 137.345C230.279 140.505 232.156 143.131 235.27 143.907L245.478 146.408C245.765 146.479 246.127 146.222 246.156 145.931L246.886 139.115C246.916 138.824 246.841 138.732 246.554 138.661Z" fill="white"/>
<path d="M226.219 181.911L224.459 180.602C223.788 180.088 223.534 178.992 223.939 178.261L225.112 176.14C225.517 175.408 226.178 175.249 226.849 175.763L240.816 186.261C241.487 186.775 241.72 187.908 241.316 188.639L240.142 190.76C239.737 191.492 239.096 191.614 238.425 191.1L236.974 190.011C236.739 189.832 236.304 189.927 236.163 190.183L234.22 193.693C234.079 193.949 234.111 194.063 234.347 194.241L236.306 195.707C238.863 197.647 241.939 197.009 243.477 194.229L245.662 190.279C247.2 187.5 246.508 184.347 243.951 182.407L228.895 171.116C226.338 169.176 223.262 169.814 221.725 172.594L219.539 176.543C218.002 179.323 218.693 182.476 221.25 184.416L223.591 186.141C223.827 186.319 224.261 186.225 224.403 185.969L226.345 182.458C226.487 182.202 226.454 182.089 226.219 181.911Z" fill="white"/>
<path d="M226.053 218.049L228.816 215.14C229.017 214.928 229.043 214.779 228.86 214.547L211.108 192.211C210.924 191.98 210.48 191.962 210.279 192.174L201.875 201.023C201.673 201.235 201.647 201.383 201.831 201.615L204.152 204.512C204.335 204.743 204.779 204.762 204.981 204.549L210.191 199.064L225.224 218.011C225.407 218.243 225.851 218.261 226.053 218.049Z" fill="white"/>
<path d="M196.764 241.455L187.638 220.48C187.286 219.666 187.62 218.53 188.368 218.071L190.578 216.718C191.326 216.259 192.038 216.46 192.389 217.274L201.48 238.271C201.597 238.543 202.021 238.675 202.271 238.522L205.692 236.426C205.941 236.273 206.005 236.136 205.887 235.865L196.418 214.169C195.15 211.22 192.159 210.259 189.451 211.918L185.317 214.451C182.608 216.111 181.655 219.195 182.922 222.143L192.356 243.861C192.474 244.132 192.898 244.265 193.147 244.112L196.568 242.016C196.818 241.863 196.881 241.726 196.764 241.455Z" fill="white"/>
<path d="M158.176 243.629C157.326 244.641 157.074 245.62 157.243 246.873L157.865 251.686C158.259 254.871 160.862 256.63 163.926 255.792L172.595 253.424C172.877 253.346 172.976 253.233 172.939 252.94L169.321 224.639C169.285 224.345 168.914 224.1 168.632 224.177L159.52 226.667C156.456 227.504 154.68 230.199 155.074 233.385L156.027 240.837C156.211 242.303 157.135 243.307 158.176 243.629ZM167.553 250.035L164.327 250.917C163.4 251.17 162.762 250.738 162.629 249.777L162.217 246.684C162.125 245.713 162.792 244.664 163.719 244.41L166.703 243.595L167.553 250.035ZM160.059 233.236C159.926 232.275 160.633 231.215 161.561 230.962L164.988 230.026L166.114 238.903L162.445 239.906C161.518 240.159 160.88 239.727 160.747 238.767L160.059 233.236Z" fill="white"/>
<circle cx="128.68" cy="245.448" r="2.824" fill="white"/>
</svg>
