<svg width="48" height="49" viewBox="0 0 48 49" fill="none" xmlns="http://www.w3.org/2000/svg">
<path d="M9.1885 12.9121L8.9175 16.4613C8.81995 17.6698 8.38635 18.8347 7.66008 19.8037L6.55441 21.2734L4.42979 24.0932L1.28622 28.2738C-1.72727 32.2803 0.863463 38.0505 5.84981 38.4315L9.44866 38.7037L9.1885 35.2742L6.10997 35.0347C4.53819 34.915 3.87695 33.7827 3.66016 33.3037C3.44336 32.8246 3.04228 31.5726 3.99619 30.3097L6.55441 26.9021L8.67903 24.1041L10.3701 21.8613C11.4866 20.3698 12.1586 18.5952 12.2996 16.7335L12.6139 12.6617L9.1885 12.9121Z" fill="black"/>
<path d="M34.9008 42.0677C34.7707 43.8423 33.2748 44.8004 31.9524 44.8004C31.3237 44.8004 30.7383 44.5935 30.2072 44.2016L26.8143 41.6322L24.0067 39.4983L21.7737 37.8C20.2887 36.6786 18.5218 36.0036 16.6681 35.8621L12.614 35.5463L12.8742 38.9758L16.408 39.2479C17.6112 39.3459 18.7711 39.7814 19.7358 40.5108L21.1992 41.6213L24.0067 43.7552L28.1693 46.9124C29.34 47.7943 30.6624 48.1971 31.9524 48.1971C35.0634 48.1971 38.0119 45.8564 38.2829 42.3181L38.5539 38.7036L35.1393 38.9649L34.9008 42.0677Z" fill="black"/>
<path d="M13.1007 6.12943C13.2308 4.35484 14.7267 3.39677 16.0491 3.39677C16.6778 3.39677 17.2632 3.60363 17.7944 3.99556L21.1872 6.56491L24.0056 8.70967L26.2386 10.3972C27.7237 11.5185 29.4906 12.1935 31.3442 12.3351L35.3983 12.6508L35.1382 9.22136L31.6044 8.94919C30.4012 8.8512 29.2413 8.41572 28.2765 7.68628L26.8132 6.5758L24.0056 4.44193L19.8431 1.28468C18.6615 0.402822 17.3391 0 16.0491 0C12.9381 0 9.98963 2.34072 9.71863 5.86814L9.44763 9.48265L12.8622 9.22136L13.1007 6.12943Z" fill="black"/>
<path d="M42.1527 9.75497L38.5538 9.48279L38.814 12.9122L41.8925 13.1517C43.4535 13.2715 44.1255 14.4038 44.3423 14.8828C44.5591 15.3618 44.9602 16.6138 44.0063 17.8767L41.4481 21.2844L39.3235 24.1041L37.6433 26.3469C36.5268 27.8384 35.8547 29.613 35.7138 31.4747L35.3994 35.5465L38.814 35.2852L39.085 31.736C39.1825 30.5275 39.6161 29.3626 40.3424 28.3937L41.4481 26.9239L43.5727 24.1041L46.7163 19.9235C49.7189 15.9062 47.1282 10.1469 42.1527 9.75497Z" fill="black"/>
<path d="M5.12287 19.3683L4.20157 18.138L2.86841 22.0138L3.7897 23.2441L5.12287 19.3683Z" fill="#5BB889"/>
<path d="M9.97874 9.45018L8.77563 12.9449L9.18751 12.9232L10.1522 12.847L11.3553 9.34131L9.97874 9.45018Z" fill="#5BB889"/>
<path d="M37.643 21.8616L37.7731 22.0358L39.2796 17.6265C39.1821 17.2454 39.1062 16.8644 39.0845 16.4616L38.9436 14.687L36.8843 20.6967C37.1119 21.0995 37.3612 21.4914 37.643 21.8616Z" fill="#5BB889"/>
<path d="M7.10642 9.66778L5.90332 13.1843C5.96835 13.1734 6.04422 13.1625 6.1201 13.1625L7.29068 13.0754L8.49378 9.56979L7.10642 9.66778Z" fill="#5BB889"/>
<path d="M0.158816 17.5067L2.33741 11.1595C0.516495 12.662 -0.372283 15.1442 0.158816 17.5067Z" fill="#5BB889"/>
<path d="M18.8684 11.9106L20.5267 7.08759L19.7246 7.69726C19.4212 7.92589 19.1068 8.12186 18.7708 8.29605L17.4052 12.259C17.9037 12.1827 18.3915 12.063 18.8684 11.9106Z" fill="#5BB889"/>
<path d="M35.7136 16.7337C35.7678 17.4304 35.8979 18.1272 36.093 18.7913L38.6834 11.2248L38.5534 9.49374L38.445 8.02399L35.6594 16.1131L35.7136 16.7337Z" fill="#5BB889"/>
<path d="M15.8981 12.4005L17.1121 8.85129C16.8736 8.89484 16.6352 8.9275 16.3967 8.94927L15.7247 9.00371L14.5216 12.5094L15.8981 12.4005Z" fill="#5BB889"/>
<path d="M12.603 12.6508L13.0257 12.6182L14.2288 9.12341L12.8631 9.2214H12.8523L11.6492 12.727L12.603 12.6508Z" fill="#5BB889"/>
<path d="M6.12009 20.6966L5.38306 22.8414L6.55364 21.2845L6.12009 20.6966Z" fill="#5BB889"/>
<path d="M46.7156 28.2849L45.8702 27.1526L44.4828 31.2026C44.7863 32.128 44.5153 32.9555 44.3527 33.3256C44.2227 33.6196 43.9084 34.1639 43.3339 34.5667L42.0007 38.4643L42.1633 38.4534C42.6077 38.4208 43.0196 38.3446 43.4206 38.2357L46.7915 28.4047C46.7589 28.3502 46.7373 28.3176 46.7156 28.2849Z" fill="#5BB889"/>
<path d="M28.6894 36.45L26.9443 41.5234L28.2775 40.5109C28.4292 40.4021 28.581 40.2932 28.7436 40.1952L30.1743 36.0255C29.6649 36.1343 29.1663 36.2759 28.6894 36.45Z" fill="#5BB889"/>
<path d="M31.6919 35.8404L30.4563 39.4549C30.8357 39.3569 31.215 39.2916 31.6052 39.2589L31.8762 39.2371L33.0793 35.7315L31.6919 35.8404Z" fill="#5BB889"/>
<path d="M47.6587 30.0703L45.1333 37.4409C46.098 36.8094 46.8458 35.9276 47.3444 34.9151L47.8647 33.4127C48.0923 32.324 48.0381 31.1699 47.6587 30.0703Z" fill="#5BB889"/>
<path d="M13.1014 42.068L13.0364 41.2841L11.3672 46.1507C11.6815 46.4882 12.0284 46.793 12.3969 47.0543L13.6 43.5378C13.329 43.135 13.1447 42.645 13.1014 42.068Z" fill="#5BB889"/>
<path d="M11.7129 28.84L9.2417 36.0364L9.44764 38.7146L9.49099 39.2372L12.2657 31.1589C12.179 30.3642 11.9947 29.5803 11.7129 28.84Z" fill="#5BB889"/>
<path d="M21.2855 41.6978L19.3887 47.2176C19.5404 47.1196 19.6813 47.0216 19.8331 46.9127L21.1987 45.8785L22.3585 42.5035L21.2855 41.6978Z" fill="#5BB889"/>
<path d="M10.3581 26.347L9.95708 25.8026L8.52637 29.9724C8.7323 30.5385 8.87321 31.1264 8.91656 31.7252L8.9816 32.5635L10.8675 27.0764C10.705 26.8369 10.5424 26.5865 10.3581 26.347Z" fill="#5BB889"/>
<path d="M3.65979 14.8828C3.73566 14.7087 3.87656 14.4474 4.10418 14.1752L5.61076 9.78769C5.0905 9.84212 4.60276 9.96188 4.14753 10.1252L0.960938 19.4336C1.05849 19.597 1.17771 19.7603 1.29694 19.9236L1.87139 20.6965L3.39966 16.2546C3.36714 15.6449 3.54056 15.1441 3.65979 14.8828Z" fill="#5BB889"/>
<path d="M43.9411 24.605L42.6079 28.4808L43.5292 29.7001L44.8624 25.8243L43.9411 24.605Z" fill="#5BB889"/>
<path d="M15.974 44.8006C15.5621 44.7897 15.1286 44.6809 14.7384 44.4958L13.6328 47.7184C14.023 47.8817 14.4349 48.0014 14.8468 48.0885L15.974 44.8006Z" fill="#5BB889"/>
<path d="M19.3884 42.9933L17.7951 44.2018C17.7301 44.2562 17.6542 44.2997 17.5783 44.3542L16.256 48.2082C16.7329 48.1973 17.199 48.1211 17.6759 47.9905L19.3884 42.9933Z" fill="#5BB889"/>
<path d="M23.508 43.3851L23.1611 44.3976L24.0066 43.7553L23.508 43.3851Z" fill="#5BB889"/>
<path d="M39.3233 24.1042L40.3096 22.7978L41.025 20.7183L40.3421 19.8147C40.2554 19.7058 40.1795 19.597 40.1037 19.4772L38.7705 23.3639L39.3233 24.1042Z" fill="#5BB889"/>
<path d="M8.9599 24.4851L8.6781 24.104L6.96557 26.3794L6.70544 27.1306L7.62674 28.3609L8.9599 24.4851Z" fill="#5BB889"/>
<path d="M26.2393 37.8L25.1338 38.6383L24.6677 39.9992L25.7299 40.8048L26.9222 37.321C26.6946 37.4734 26.467 37.6367 26.2393 37.8Z" fill="#5BB889"/>
<path d="M38.8243 35.2851H38.8135L37.437 35.394L36.2339 38.8996L37.6212 38.7908L38.8243 35.2851Z" fill="#5BB889"/>
<path d="M41.6969 35.0675L40.3095 35.1764L39.1064 38.682L40.4938 38.5732L41.6969 35.0675Z" fill="#5BB889"/>
<path d="M35.941 35.5139L35.399 35.5574L34.5644 35.6119L33.3613 39.1175L34.7487 39.0086L35.941 35.5139Z" fill="#5BB889"/>
<path d="M12.7751 37.811L12.6017 35.5465L12.5258 34.6102L9.76196 42.6885C9.85951 43.4397 10.0763 44.1364 10.3906 44.757L12.7751 37.811Z" fill="#5BB889"/>
<path d="M35.1606 9.45017L35.4099 12.651L38.1088 4.77961C37.9462 4.13727 37.6969 3.54937 37.3718 3.0159L35.1606 9.45017Z" fill="#5BB889"/>
<path d="M31.627 3.4296C31.7353 3.41871 31.8437 3.40783 31.9521 3.40783C32.2773 3.40783 32.6024 3.46226 32.9168 3.57113L34.0223 0.359442C33.6213 0.21791 33.2094 0.119926 32.7759 0.0654907L31.627 3.4296Z" fill="#5BB889"/>
<path d="M34.1201 4.33321C34.5212 4.74692 34.8138 5.30216 34.8897 5.98805L36.3421 1.76386C36.0169 1.45902 35.6592 1.18684 35.2799 0.947327L34.1201 4.33321Z" fill="#5BB889"/>
<path d="M21.7625 10.4083L22.3261 9.9837L23.0198 7.96958L21.9576 7.16394L20.5811 11.1813C20.9929 10.9526 21.3831 10.6914 21.7625 10.4083Z" fill="#5BB889"/>
<path d="M41.6106 27.1525L41.8924 26.336L41.448 26.9239L41.6106 27.1525Z" fill="#5BB889"/>
<path d="M24.18 4.58286L24.3101 4.22443L24.0066 4.45252L24.18 4.58286Z" fill="#5BB889"/>
<path d="M25.3398 5.46543L26.402 6.27107L28.0821 1.36099L26.272 2.73277L25.3398 5.46543Z" fill="#5BB889"/>
<path d="M28.0715 5.62871L29.8924 4.24605L31.334 0.0327454C30.8463 0.0762937 30.3585 0.185165 29.8816 0.359358L28.0715 5.62871Z" fill="#5BB889"/>
</svg>
