<svg width="859" height="286" viewBox="0 0 859 286" fill="none" xmlns="http://www.w3.org/2000/svg">
  <g filter="url(#filter0_d)">
    <path d="M113.497 68.6114C117.846 70.6353 121.557 73.1917 124.474 76.3872C127.444 79.5827 129.671 83.0978 131.209 86.9857C132.746 90.8736 133.542 94.655 133.542 98.3298C133.542 103.017 132.534 107.277 130.466 111.059C128.398 114.893 125.747 118.089 122.459 120.805C119.171 123.468 115.406 125.545 111.217 126.93C107.028 128.368 102.733 129.06 98.3843 129.06H70.1205V159.205H54V73.458C54 71.5939 54.7954 69.8364 56.3332 68.1321C57.871 66.4278 60.1512 65.5757 63.1208 65.5757H98.3843C104.058 65.6289 109.096 66.6409 113.497 68.6114ZM98.4374 115.213C101.354 115.213 103.952 114.734 106.232 113.828C108.513 112.923 110.475 111.645 112.065 110.047C113.656 108.449 114.876 106.638 115.777 104.668C116.679 102.697 117.103 100.567 117.103 98.3831C117.103 96.1462 116.679 93.9093 115.83 91.6725C114.982 89.4356 113.762 87.465 112.225 85.6542C110.634 83.8434 108.725 82.4054 106.392 81.287C104.111 80.1686 101.46 79.5827 98.4374 79.5827H70.1735V115.213H98.4374Z" fill="white" />
    <path d="M198.766 129.697C200.304 132.733 202.319 135.395 204.811 137.686C207.303 139.922 210.167 141.733 213.455 143.011C216.689 144.29 220.03 144.982 223.477 144.982C226.977 144.982 230.317 144.343 233.552 143.118C236.734 141.84 239.597 140.082 242.09 137.845C244.582 135.608 246.597 132.892 248.082 129.803C249.566 126.714 250.309 123.359 250.309 119.737V65.6265H266.535V119.737C266.535 125.702 265.316 131.081 262.929 135.875C260.49 140.668 257.309 144.822 253.331 148.231C249.354 151.639 244.741 154.302 239.544 156.22C234.347 158.084 228.992 159.042 223.477 159.042C218.121 159.042 212.871 158.084 207.728 156.113C202.584 154.143 197.97 151.426 193.94 147.965C189.91 144.503 186.622 140.349 184.13 135.555C181.638 130.762 180.365 125.489 180.365 119.791V65.6265H196.486V119.737C196.486 123.306 197.228 126.661 198.766 129.697Z" fill="white" />
    <path d="M335.048 65.6265V145.195H396.401V159.255H328.048C325.132 159.255 322.904 158.403 321.314 156.699C319.723 154.995 318.927 153.237 318.927 151.48V65.6265H335.048Z" fill="white" />
    <path d="M528.334 71.1691L529.713 71.5419C529.607 71.5419 529.554 71.4886 529.448 71.4354C529.554 71.4354 529.713 71.5419 530.084 71.7017C530.774 71.8615 531.198 72.0212 531.463 72.0745L533.107 72.5538L527.486 86.7206L523.88 84.8566C521.282 83.5784 518.842 82.5665 516.456 81.7143C514.07 80.8622 511.683 80.2231 509.244 79.7438C506.805 79.2644 504.313 78.9449 501.661 78.7318C499.063 78.5188 496.199 78.4123 493.124 78.4123C489.889 78.4123 486.548 78.6253 483.208 79.1046C479.814 79.584 476.791 80.3296 474.034 81.448C471.276 82.5132 469.049 83.9512 467.299 85.7087C465.549 87.4663 464.701 89.7031 464.701 92.3661C464.701 94.6029 465.337 96.4137 466.557 97.6919C467.829 98.9701 469.579 99.9821 471.807 100.621C474.14 101.473 476.897 102.059 480.079 102.379C483.261 102.698 486.76 103.071 490.578 103.391C493.654 103.55 496.942 103.817 500.389 104.19C503.835 104.562 507.282 105.095 510.782 105.841C514.229 106.533 517.57 107.545 520.698 108.77C523.88 110.048 526.637 111.699 529.077 113.723C531.516 115.8 533.425 118.25 534.91 121.126C536.341 124.002 537.084 127.517 537.084 131.618C537.084 136.731 535.652 141.098 532.842 144.666C530.031 148.288 526.319 151.217 521.759 153.56C517.198 155.904 512.161 157.608 506.487 158.726C500.866 159.792 495.245 160.377 489.677 160.377C486.654 160.377 483.844 160.271 481.246 160.058C478.647 159.845 476.049 159.525 473.556 159.046C471.064 158.567 468.572 158.034 466.133 157.342C463.693 156.649 461.095 155.85 458.337 154.839C456.481 154.146 454.732 153.454 452.982 152.761C451.232 152.069 449.429 151.377 447.626 150.684L445.876 150.045L453.141 136.89L455.156 138.009C455.633 138.328 456.322 138.648 457.171 138.861C457.595 139.021 457.966 139.18 458.337 139.34C458.709 139.5 459.08 139.66 459.504 139.82C469.261 144.08 479.337 146.211 489.73 146.211C492.965 146.211 496.411 145.944 500.017 145.412C503.623 144.879 507.017 143.974 510.093 142.802C513.168 141.577 515.714 140.086 517.782 138.222C519.85 136.358 520.857 134.174 520.857 131.564C520.857 129.381 520.327 127.57 519.32 126.185C518.259 124.747 516.986 123.576 515.395 122.617C513.805 121.658 512.108 120.913 510.199 120.433C508.343 119.954 506.487 119.528 504.737 119.155C502.828 118.729 500.866 118.463 498.851 118.303C496.836 118.143 494.874 117.93 492.965 117.664C491.056 117.398 489.094 117.185 487.079 117.025C485.064 116.865 483.101 116.652 481.086 116.386C477.321 115.96 473.503 115.321 469.632 114.522C465.761 113.67 462.262 112.391 459.08 110.634C455.898 108.876 453.353 106.533 451.338 103.604C449.323 100.674 448.315 96.8931 448.315 92.3128C448.315 87.3597 449.641 83.1523 452.239 79.6372C454.891 76.1222 458.284 73.2462 462.474 70.9561C466.663 68.7192 471.488 67.0682 476.844 66.003C482.2 64.9378 487.662 64.4585 493.177 64.4585C498.692 64.4585 504.154 64.8313 509.668 65.6302C515.183 66.4291 520.433 67.9203 525.418 70.1039C525.736 70.2637 526.054 70.4235 526.372 70.4767C526.637 70.5833 527.009 70.6898 527.433 70.8495L528.175 71.1158H528.334V71.1691Z" fill="white" />
    <path d="M576.059 159.256L617.58 69.1422C618.269 67.864 619.277 66.6923 620.709 65.6271C622.14 64.5619 623.89 63.9761 626.064 63.9761C628.557 63.9761 630.413 64.4554 631.685 65.3608C632.958 66.2662 633.913 67.5444 634.708 69.1422L675.327 159.256H657.669L625.905 89.3272L593.664 159.256H576.059Z" fill="white" />
    <path d="M757.627 125.756H733.234V159.255H717.113V73.5088C717.113 71.6447 717.856 69.8872 719.447 68.1829C720.984 66.4786 723.265 65.6265 726.234 65.6265H763.46C767.861 65.6265 772.103 66.3721 776.08 67.8633C780.057 69.3546 783.61 71.4849 786.686 74.2544C789.762 77.0238 792.201 80.2726 794.004 84.054C795.807 87.8354 796.708 91.9363 796.708 96.4633C796.708 99.2327 796.284 102.055 795.382 104.878C794.534 107.701 793.155 110.364 791.405 112.867C789.602 115.317 787.375 117.554 784.671 119.471C781.966 121.388 778.785 122.88 775.126 123.998L801.746 159.255H782.603L757.627 125.756ZM733.234 111.802H763.46C766.111 111.802 768.497 111.376 770.565 110.524C772.634 109.671 774.383 108.553 775.815 107.115C777.247 105.677 778.307 104.079 779.05 102.215C779.792 100.351 780.163 98.4338 780.163 96.4633C780.163 94.4927 779.792 92.4689 779.05 90.445C778.307 88.4212 777.194 86.6104 775.815 84.9594C774.383 83.3084 772.634 82.0302 770.565 81.0182C768.497 80.0063 766.111 79.527 763.46 79.527H733.234V111.802Z" fill="white" />
    <path d="M242.245 48H204.652V59.4506H242.245V48Z" fill="white" />
  </g>
  <g filter="url(#filter1_d)">
    <path d="M52.139 182.904L62.859 228.397C62.926 228.732 63.194 229 63.529 229H68.152C68.487 229 68.755 228.732 68.889 228.397L79.609 182.904C79.743 182.368 79.475 182.1 78.939 182.1H74.316C73.914 182.1 73.579 182.301 73.512 182.77L66.611 215.868L65.874 221.094L65.137 215.868L58.169 182.77C58.102 182.301 57.834 182.1 57.365 182.1H52.742C52.273 182.1 51.938 182.368 52.139 182.904ZM102.48 229H98.4601C97.9911 229 97.7231 228.665 97.7231 228.263V182.837C97.7231 182.368 97.9911 182.1 98.4601 182.1H102.48C102.882 182.1 103.217 182.368 103.217 182.837V228.263C103.217 228.665 102.882 229 102.48 229ZM148.189 228.129L141.757 209.369C145.241 208.23 147.385 205.148 147.385 200.927V190.944C147.385 185.584 143.901 182.1 138.474 182.1H124.873C124.404 182.1 124.136 182.368 124.136 182.837V228.263C124.136 228.665 124.404 229 124.873 229H128.826C129.295 229 129.563 228.665 129.563 228.263V209.838H136.263L142.427 228.464C142.561 228.799 142.963 229 143.298 229H147.653C148.189 229 148.323 228.665 148.189 228.129ZM129.563 187.125H137.536C140.283 187.125 141.891 188.8 141.891 191.547V200.324C141.891 203.071 140.283 204.746 137.536 204.746H129.563V187.125ZM173.872 229H177.825C178.294 229 178.562 228.665 178.562 228.263V187.393H186.87C187.272 187.393 187.607 187.125 187.607 186.656V182.837C187.607 182.368 187.272 182.1 186.87 182.1H164.827C164.425 182.1 164.09 182.368 164.09 182.837V186.656C164.09 187.125 164.425 187.393 164.827 187.393H173.135V228.263C173.135 228.665 173.403 229 173.872 229ZM224.11 182.837V219.62C224.11 222.367 222.435 223.975 219.755 223.975H215.4C212.653 223.975 211.045 222.367 211.045 219.62V182.837C211.045 182.368 210.71 182.1 210.308 182.1H206.288C205.886 182.1 205.551 182.368 205.551 182.837V220.223C205.551 225.717 209.035 229.201 214.529 229.201H220.626C226.053 229.201 229.537 225.717 229.537 220.223V182.837C229.537 182.368 229.269 182.1 228.8 182.1H224.847C224.378 182.1 224.11 182.368 224.11 182.837ZM274.82 228.062L264.033 182.703C263.899 182.301 263.631 182.1 263.229 182.1H258.606C258.271 182.1 257.936 182.301 257.869 182.703L246.948 228.062C246.881 228.598 247.149 229 247.685 229H252.04C252.442 229 252.71 228.732 252.777 228.397L254.452 220.826H267.383L268.991 228.397C269.058 228.732 269.393 229 269.728 229H274.15C274.686 229 274.954 228.598 274.82 228.062ZM255.524 215.667L260.147 194.495L260.951 189.738L261.688 194.495L266.244 215.667H255.524ZM297.681 182.1H293.728C293.259 182.1 292.991 182.368 292.991 182.837V228.263C292.991 228.665 293.259 229 293.728 229H312.22C312.622 229 312.957 228.665 312.957 228.263V224.578C312.957 224.176 312.622 223.841 312.22 223.841H298.418V182.837C298.418 182.368 298.15 182.1 297.681 182.1Z" fill="#5BB89E" />
    <path d="M361.812 229H365.765C366.234 229 366.502 228.665 366.502 228.263V187.393H374.81C375.212 187.393 375.547 187.125 375.547 186.656V182.837C375.547 182.368 375.212 182.1 374.81 182.1H352.767C352.365 182.1 352.03 182.368 352.03 182.837V186.656C352.03 187.125 352.365 187.393 352.767 187.393H361.075V228.263C361.075 228.665 361.343 229 361.812 229ZM417.678 228.129L411.246 209.369C414.73 208.23 416.874 205.148 416.874 200.927V190.944C416.874 185.584 413.39 182.1 407.963 182.1H394.362C393.893 182.1 393.625 182.368 393.625 182.837V228.263C393.625 228.665 393.893 229 394.362 229H398.315C398.784 229 399.052 228.665 399.052 228.263V209.838H405.752L411.916 228.464C412.05 228.799 412.452 229 412.787 229H417.142C417.678 229 417.812 228.665 417.678 228.129ZM399.052 187.125H407.025C409.772 187.125 411.38 188.8 411.38 191.547V200.324C411.38 203.071 409.772 204.746 407.025 204.746H399.052V187.125ZM461.648 228.062L450.861 182.703C450.727 182.301 450.459 182.1 450.057 182.1H445.434C445.099 182.1 444.764 182.301 444.697 182.703L433.776 228.062C433.709 228.598 433.977 229 434.513 229H438.868C439.27 229 439.538 228.732 439.605 228.397L441.28 220.826H454.211L455.819 228.397C455.886 228.732 456.221 229 456.556 229H460.978C461.514 229 461.782 228.598 461.648 228.062ZM442.352 215.667L446.975 194.495L447.779 189.738L448.516 194.495L453.072 215.667H442.352ZM484.576 229H480.556C480.087 229 479.819 228.665 479.819 228.263V182.837C479.819 182.368 480.087 182.1 480.556 182.1H484.576C484.978 182.1 485.313 182.368 485.313 182.837V228.263C485.313 228.665 484.978 229 484.576 229ZM525.863 182.837V204.277L526.332 217.744L511.994 182.569C511.86 182.301 511.592 182.1 511.257 182.1H506.969C506.5 182.1 506.232 182.368 506.232 182.837V228.263C506.232 228.665 506.5 229 506.969 229H510.788C511.257 229 511.525 228.665 511.525 228.263V205.818L511.056 193.021L525.729 228.464C525.796 228.799 526.131 229 526.399 229H530.486C530.888 229 531.223 228.665 531.223 228.263V182.837C531.223 182.368 530.888 182.1 530.486 182.1H526.6C526.198 182.1 525.863 182.368 525.863 182.837ZM556.9 229H552.88C552.411 229 552.143 228.665 552.143 228.263V182.837C552.143 182.368 552.411 182.1 552.88 182.1H556.9C557.302 182.1 557.637 182.368 557.637 182.837V228.263C557.637 228.665 557.302 229 556.9 229ZM598.186 182.837V204.277L598.655 217.744L584.317 182.569C584.183 182.301 583.915 182.1 583.58 182.1H579.292C578.823 182.1 578.555 182.368 578.555 182.837V228.263C578.555 228.665 578.823 229 579.292 229H583.111C583.58 229 583.848 228.665 583.848 228.263V205.818L583.379 193.021L598.052 228.464C598.119 228.799 598.454 229 598.722 229H602.809C603.211 229 603.546 228.665 603.546 228.263V182.837C603.546 182.368 603.211 182.1 602.809 182.1H598.923C598.521 182.1 598.186 182.368 598.186 182.837ZM636.258 204.813V208.498C636.258 208.9 636.593 209.235 636.995 209.235H642.422V219.62C642.422 222.367 640.814 223.975 638.134 223.975H634.047C631.3 223.975 629.692 222.367 629.692 219.62V191.346C629.692 188.666 631.3 187.058 634.047 187.058H638.134C640.814 187.058 642.422 188.666 642.422 191.346V194.227C642.422 194.696 642.757 194.964 643.159 194.964H647.179C647.581 194.964 647.916 194.696 647.916 194.227V190.877C647.916 185.45 644.432 181.966 639.005 181.966H633.176C627.749 181.966 624.265 185.45 624.265 190.877V220.156C624.265 225.583 627.749 229.134 633.176 229.134H639.005C644.432 229.134 647.916 225.583 647.916 220.156V204.88C647.916 204.411 647.581 204.143 647.179 204.143L636.995 204.076C636.593 204.076 636.258 204.411 636.258 204.813ZM712.817 203.272C714.693 202.133 716.033 200.324 716.033 197.309V190.944C716.033 185.584 712.549 182.1 707.122 182.1H694.124C693.655 182.1 693.387 182.368 693.387 182.837V228.263C693.387 228.665 693.655 229 694.124 229H707.859C713.286 229 716.77 225.516 716.77 220.089V209.838C716.77 206.756 715.095 204.411 712.817 203.272ZM698.814 187.125H706.117C708.864 187.125 710.539 188.8 710.539 191.614V196.572C710.539 199.051 708.529 201.061 706.05 201.061H698.814V187.125ZM711.276 219.352C711.276 222.166 709.601 223.841 706.854 223.841H698.814V206.22H706.452C709.534 206.22 711.276 208.029 711.276 210.642V219.352ZM736.741 220.223C736.741 225.717 740.225 229.201 745.652 229.201H751.816C757.243 229.201 760.727 225.717 760.727 220.223V190.743C760.727 185.383 757.243 181.899 751.816 181.899H745.652C740.225 181.899 736.741 185.383 736.741 190.743V220.223ZM742.168 219.687V191.279C742.168 188.532 743.776 186.924 746.523 186.924H750.945C753.625 186.924 755.233 188.532 755.233 191.279V219.687C755.233 222.434 753.625 224.042 750.945 224.042H746.523C743.776 224.042 742.168 222.434 742.168 219.687ZM778.019 229H782.575C782.977 229 783.312 228.799 783.446 228.464L791.888 210.106L800.263 228.464C800.464 228.799 800.732 229 801.134 229H805.757C806.226 229 806.561 228.598 806.293 228.129L794.903 204.277L805.757 182.971C806.092 182.435 805.757 182.1 805.221 182.1H800.732C800.397 182.1 800.062 182.234 799.861 182.636L791.888 198.984L783.848 182.636C783.647 182.234 783.379 182.1 782.977 182.1H778.488C777.952 182.1 777.684 182.435 777.952 182.971L788.873 204.277L777.483 228.129C777.215 228.598 777.416 229 778.019 229Z" fill="white" />
  </g>
  <defs>
    <filter id="filter0_d" x="2" y="0" width="851.746" height="216.377" filterUnits="userSpaceOnUse" color-interpolation-filters="sRGB">
      <feFlood flood-opacity="0" result="BackgroundImageFix" />
      <feColorMatrix in="SourceAlpha" type="matrix" values="0 0 0 0 0 0 0 0 0 0 0 0 0 0 0 0 0 0 127 0" />
      <feOffset dy="4" />
      <feGaussianBlur stdDeviation="26" />
      <feColorMatrix type="matrix" values="0 0 0 0 0 0 0 0 0 0 0 0 0 0 0 0 0 0 1 0" />
      <feBlend mode="normal" in2="BackgroundImageFix" result="effect1_dropShadow" />
      <feBlend mode="normal" in="SourceGraphic" in2="effect1_dropShadow" result="shape" />
    </filter>
    <filter id="filter1_d" x="0.0794907" y="133.899" width="858.308" height="151.302" filterUnits="userSpaceOnUse" color-interpolation-filters="sRGB">
      <feFlood flood-opacity="0" result="BackgroundImageFix" />
      <feColorMatrix in="SourceAlpha" type="matrix" values="0 0 0 0 0 0 0 0 0 0 0 0 0 0 0 0 0 0 127 0" />
      <feOffset dy="4" />
      <feGaussianBlur stdDeviation="26" />
      <feColorMatrix type="matrix" values="0 0 0 0 0 0 0 0 0 0 0 0 0 0 0 0 0 0 1 0" />
      <feBlend mode="normal" in2="BackgroundImageFix" result="effect1_dropShadow" />
      <feBlend mode="normal" in="SourceGraphic" in2="effect1_dropShadow" result="shape" />
    </filter>
  </defs>
</svg>
